<?xml version="1.0" encoding="utf-8"?>
<!-- Generator: Adobe Illustrator 27.3.1, SVG Export Plug-In . SVG Version: 6.00 Build 0)  -->
<svg version="1.1" id="Layer_1" xmlns="http://www.w3.org/2000/svg" xmlns:xlink="http://www.w3.org/1999/xlink" x="0px" y="0px"
	 viewBox="0 0 138 100" style="enable-background:new 0 0 138 100;" xml:space="preserve">
<style type="text/css">
	.st0{display:none;fill:#00392C;}
	.st1{display:none;fill:#7BC1EB;}
	.st2{fill:#003726;}
	.st3{fill:#9BBCED;}
</style>
<path class="st0" d="M4.8,70.4c0.5,0,0.8,0.4,0.8,0.7c0,0.4-0.2,0.6-0.6,0.9c-1.5,1.4-2.5,2.4-2.5,3.9V77c0,0.8,0.3,1,1,1h3.1
	c0.4,0,0.6-0.1,0.6-0.7v-1.1c0-1.2-1.5-1.2-1.5-2.1c0-0.5,0.3-0.8,0.9-0.8c0.5,0,1.1,0.1,1.6,0.1s1.1-0.1,1.6-0.1
	c0.7,0,0.9,0.3,0.9,0.8c0,0.9-1.6,0.9-1.6,2.1v1.1c0,0.5,0.2,0.7,0.6,0.7h2.9c1.5,0,1.1-1.4,2-1.4c0.4,0,0.7,0.3,0.7,0.9
	c0,0.6-0.1,1.1-0.1,2.6s0.1,2,0.1,2.6c0,0.6-0.3,0.9-0.7,0.9c-0.9,0-0.5-1.2-2-1.2H3.2c-1.5,0-1.1,1.2-2,1.2c-0.4,0-0.7-0.3-0.7-0.9
	c0-0.5,0.1-1.1,0.1-2.5v-5.4c0-1-0.5-1.1-0.5-1.7c0-0.5,0.3-0.9,1.1-1.2l2-0.9C3.9,70.6,4.3,70.4,4.8,70.4L4.8,70.4z M15.7,54.6
	c0.3,0,0.6,0.3,0.5,0.8c-0.1,0.7-0.2,1.8-0.4,3.1c-0.1,1.2-0.2,2.1-0.2,2.7c-0.1,0.7-0.3,1-0.8,0.9c-0.8-0.1-0.4-0.9-1.2-1
	c-0.4,0-0.9,0.3-1.3,0.5L11,62.4c-0.5,0.3-0.8,0.6-0.8,1l0,0.5c0,0.3,0.1,0.4,0.4,0.4l1.9,0.2c1.5,0.2,1.2-1.1,2.1-1
	c0.4,0,0.7,0.3,0.6,1c-0.1,0.5-0.2,1.1-0.3,2.5c-0.1,1.4-0.1,1.9-0.2,2.5c-0.1,0.6-0.4,0.9-0.8,0.8c-0.9-0.1-0.4-1.2-1.9-1.4l-9.2-1
	c-1.5-0.2-1.2,1.1-2.1,1c-0.3,0-0.7-0.3-0.6-1.1c0-0.3,0.2-1.1,0.3-2c0.1-0.8,0.1-2.5,0.2-3.8c0.5-5,2.8-7.1,5.7-6.8
	c2,0.2,3.4,1.4,3.8,3.4l2.5-1.6C14.8,55.6,14.8,54.5,15.7,54.6L15.7,54.6z M6,59.8c-2.2-0.2-3.2,0.9-3.4,2.6
	c-0.1,0.6,0.1,1.1,0.8,1.2l4.4,0.5c0.6,0.1,0.8-0.4,0.8-1.1C8.8,61.1,8,60.1,6,59.8L6,59.8z M16.6,52.9c-0.9-0.3-0.1-1.3-1.5-1.8
	l-8.7-3.2c-1.4-0.5-1.4,0.7-2.3,0.4c-0.3-0.1-0.5-0.6-0.3-1.2c0.2-0.5,0.4-0.9,0.9-2.2c0.5-1.3,0.6-1.8,0.8-2.3
	c0.2-0.6,0.6-0.7,1-0.6c0.9,0.3,0.1,1.3,1.5,1.8l8.7,3.2c1.4,0.5,1.4-0.7,2.3-0.4c0.3,0.1,0.6,0.5,0.4,1.1c-0.2,0.5-0.4,1-0.9,2.3
	c-0.5,1.3-0.6,1.8-0.8,2.3C17.4,52.9,17,53,16.6,52.9L16.6,52.9z M23.7,31.1c0.4,0.3,0.6,0.6,1.1,1.4l1.3,2c0.5,0.7,0.5,1.2,0.3,1.6
	c-0.3,0.5-0.8,0.3-1.4,1.2l-3.3,5.3c-0.8,1.2-1,1.6-1.3,2.1c-0.3,0.5-0.8,0.6-1.1,0.4c-0.8-0.5,0.2-1.3-1.1-2.1l-7.8-5
	c-1.2-0.8-1.6,0.4-2.3-0.1c-0.3-0.2-0.5-0.6-0.1-1.1c0.3-0.4,0.6-0.8,1.4-2l2.9-4.6c0.5-0.8,0.2-1.2,0.5-1.7
	c0.3-0.4,0.7-0.6,1.6-0.4l2.2,0.3c0.8,0.1,1.3,0.2,1.7,0.4c0.4,0.3,0.5,0.7,0.3,1.1c-0.2,0.3-0.5,0.4-1,0.5c-2,0.4-3.4,0.6-4.3,2
	L12.7,33c-0.4,0.6-0.3,1,0.3,1.4l2.4,1.5c0.3,0.2,0.6,0.2,0.8-0.2l0.3-0.4c0.6-1-0.6-1.8-0.1-2.6c0.3-0.4,0.6-0.5,1.2-0.1
	c0.4,0.3,0.8,0.6,1.2,0.8c0.4,0.3,0.9,0.5,1.3,0.7c0.5,0.4,0.6,0.7,0.4,1.1c-0.5,0.7-1.7,0-2.3,1l-0.3,0.4c-0.3,0.4-0.2,0.6,0.1,0.9
	l2.5,1.6c0.5,0.4,1,0.3,1.4-0.3l0.8-1.3c0.9-1.5,0.7-2.9,0-5.1c-0.2-0.5-0.2-0.8,0-1.1C22.8,31,23.2,30.9,23.7,31.1L23.7,31.1z
	 M29.8,12.6c0.6,0.7-0.6,1.3,0.4,2.4l7.4,8.3c0.5,0.6,0.3,1.1-0.1,1.5c-0.6,0.5-1,0.4-1.7,0.4l-11.6-1.5l4.6,5.1
	c1,1.1,1.9-0.4,2.6,0.4c0.3,0.4,0.2,0.8-0.3,1.2c-0.5,0.4-0.9,0.7-1.3,1.1c-0.4,0.3-0.8,0.8-1.2,1.1c-0.5,0.4-0.9,0.3-1.1,0.1
	c-0.6-0.7,0.6-1.3-0.4-2.4l-6.2-6.9c-1-1.1-1.7,0-2.3-0.6c-0.3-0.3-0.2-0.8,0.3-1.2c0.4-0.4,0.9-0.7,1.2-1c0.5-0.4,0.8-0.8,1.1-1.1
	c0.4-0.3,0.8-0.4,1.4-0.4l9.1,1.2l-3.3-3.7c-1-1.1-1.9,0.4-2.6-0.4c-0.2-0.3-0.2-0.8,0.3-1.2c0.5-0.4,0.9-0.7,1.3-1.1
	c0.4-0.3,0.8-0.8,1.2-1.1C29.1,12.3,29.5,12.4,29.8,12.6z M42.7,21.5c-1.2,0.7-1.6,1-2.1,1.3c-0.5,0.3-1,0.1-1.1-0.2
	c-0.4-0.8,0.8-1.1,0-2.3L35,12.2c-0.7-1.3-1.6-0.4-2-1.2c-0.2-0.3-0.1-0.8,0.4-1.1c0.5-0.3,1-0.5,2.2-1.2c1.1-0.6,2.1-1.4,3.2-2
	c3.9-2.2,8.8-1.9,11.2,2.4c2,3.6,1,7.8-3.2,10.2C45.4,20.1,44,20.8,42.7,21.5L42.7,21.5z M45.1,18.1c2.2-1.2,2.5-3.3,0.7-6.5
	c-1.9-3.3-4.2-4-6.2-2.9l-0.4,0.2c-0.7,0.4-0.7,0.8-0.4,1.3l4.4,7.8c0.3,0.6,0.7,0.7,1.4,0.3L45.1,18.1L45.1,18.1z M54.6,15.7
	l-1.3-1.9c-0.5-0.8-0.9-1.4-1-1.8c-0.1-0.6,0.2-0.9,0.6-1c0.4-0.1,0.7,0.2,1,0.4c1.4,1.1,3.5,2.5,6,2.1c1.6-0.3,2.2-1.1,2.1-2.1
	c-0.2-1.3-1.7-1.4-3.8-1.6c-2.6-0.3-6-0.9-6.5-4c-0.4-2.5,1.4-4.6,4.1-5.1c1.6-0.3,2.5,0.1,3,0c0.5-0.1,0.4-0.8,1-0.9
	c0.7-0.1,1,0.4,1.7,1.2l0.7,0.8c0.9,1,1.2,1.6,1.3,2c0.1,0.4-0.2,0.7-0.5,0.7c-0.4,0.1-0.7-0.1-1.1-0.4c-1.1-0.8-3-1.9-5-1.6
	c-1.1,0.2-1.6,0.7-1.5,1.5c0.2,1,1.2,1.1,3.2,1.3c3.2,0.3,6.5,0.8,7.1,4.2c0.5,3-1.6,5.3-5.1,5.9c-1.8,0.3-3,0-3.6,0.1
	c-0.6,0.1-0.6,0.8-1.2,0.9C55.3,16.7,55,16.3,54.6,15.7L54.6,15.7z M87.7,6.7c-0.1,0.5-0.5,0.7-0.9,0.7C86.5,7.3,86.3,7,86,6.6
	c-1.1-1.8-1.8-2.9-3.3-3.2l-1-0.2c-0.7-0.1-1.1,0.1-1.2,0.7L79.9,7c-0.1,0.4,0,0.6,0.5,0.7l1,0.2c1.1,0.2,1.5-1.3,2.4-1.1
	c0.5,0.1,0.7,0.4,0.6,1.1c-0.1,0.5-0.3,1.1-0.3,1.5c-0.1,0.5-0.2,1.1-0.2,1.6c-0.1,0.6-0.5,0.9-0.9,0.8c-0.9-0.2-0.6-1.7-1.8-2
	l-1-0.2c-0.5-0.1-0.7,0-0.7,0.4l-0.5,2.8c-0.3,1.4,1.2,1.3,1,2.3c-0.1,0.4-0.4,0.7-1,0.5c-0.6-0.1-1.1-0.3-2.6-0.5
	c-1.4-0.3-2-0.3-2.5-0.4c-0.6-0.1-0.8-0.5-0.7-0.9c0.2-0.9,1.3-0.3,1.5-1.8l1.7-9.1c0.3-1.4-1-1.3-0.8-2.2c0.1-0.4,0.4-0.7,1-0.5
	c0.5,0.1,1,0.3,2.4,0.5l5.3,1c1,0.2,1.2-0.3,1.8-0.2c0.5,0.1,0.8,0.5,1,1.3L87.5,5C87.7,5.8,87.8,6.2,87.7,6.7L87.7,6.7z M87.4,10
	c2.1-4.5,6.8-5.8,10.8-3.8c4.2,2,6,6.4,4,10.8c-2,4.3-6.1,5.4-10.6,3.2C87.5,18.2,85.3,14.4,87.4,10z M98,14.6
	c1.2-2.5,1.6-5.7-0.5-6.7c-2.2-1-4.3,1.3-5.6,3.9c-1.2,2.5-1.4,5.4,0.7,6.4C94.8,19.4,96.7,17.3,98,14.6z M110.9,33.1
	c-0.2,0.3-0.6,0.3-0.9,0c-0.5-0.5-1.3-1.2-2.3-2.1c-0.9-0.8-1.6-1.3-2-1.7c-0.5-0.4-0.6-0.9-0.3-1.2c0.5-0.6,1,0.2,1.5-0.4
	c0.3-0.3,0.3-0.9,0.3-1.4l0.1-1.5c0-0.6,0-1-0.4-1.3l-0.4-0.3c-0.2-0.2-0.4-0.2-0.6,0.1l-1.3,1.5c-1,1.1,0.2,1.6-0.4,2.3
	c-0.2,0.3-0.7,0.4-1.1-0.1c-0.4-0.4-0.8-0.8-1.8-1.7c-1.1-0.9-1.5-1.2-1.9-1.6c-0.5-0.4-0.4-0.9-0.2-1.1c0.6-0.7,1.2,0.4,2.2-0.7
	l6.1-7c1-1.1-0.2-1.6,0.4-2.3c0.2-0.3,0.7-0.4,1.3,0.2c0.2,0.2,0.8,0.8,1.5,1.4c0.6,0.5,2,1.5,3,2.4c3.7,3.3,4.2,6.4,2.2,8.6
	c-1.3,1.5-3.1,1.9-4.9,1.2l-0.2,3C110.7,31.8,111.6,32.3,110.9,33.1L110.9,33.1z M112.3,22.1c1.5-1.7,1.1-3.1-0.2-4.3
	c-0.4-0.4-0.9-0.6-1.4,0l-2.9,3.3c-0.4,0.4-0.2,0.8,0.4,1.3C109.7,23.7,111,23.7,112.3,22.1z M117.5,45.3l-2.5-4.6
	c-0.7-1.2-1-1.7-1.2-2.2c-0.3-0.6-0.1-1,0.2-1.1c0.8-0.4,1,0.8,2.3,0.1l8.2-4.4c1.3-0.7,0.4-1.6,1.2-2c0.3-0.2,0.8,0,1.1,0.5
	c0.3,0.5,0.4,0.9,1.1,2.1c0.7,1.2,1,1.7,1.2,2.2c0.3,0.6,0.1,1-0.2,1.1c-0.8,0.4-1-0.8-2.3-0.1l-8,4.3c-0.6,0.3-0.7,0.7-0.4,1.4
	l0.4,0.7c0.6,1.2,2.2,1.8,4.4,2.3c0.5,0.1,0.8,0.2,1,0.6c0.2,0.3,0.1,0.8-0.4,1.1c-0.5,0.2-0.9,0.2-1.8,0.3l-2.4,0.2
	c-0.9,0-1.3-0.1-1.5-0.6C117.5,46.5,117.9,46.1,117.5,45.3L117.5,45.3z M119.9,49.5c0.9-0.3,0.9,1,2.3,0.6l8.9-2.6
	c1.4-0.4,0.7-1.4,1.6-1.7c0.3-0.1,0.8,0.2,1,0.8c0.2,0.5,0.2,0.9,0.6,2.3c0.4,1.4,0.6,1.8,0.7,2.4c0.2,0.6-0.1,1-0.4,1.1
	c-0.9,0.3-0.9-1-2.3-0.6l-8.9,2.6c-1.4,0.4-0.7,1.4-1.6,1.7c-0.3,0.1-0.8-0.1-0.9-0.7c-0.2-0.5-0.2-1-0.6-2.4
	c-0.4-1.4-0.6-1.8-0.7-2.4C119.3,50,119.5,49.6,119.9,49.5z M133.6,69c-0.5,0.1-0.9-0.3-0.9-0.6c0-0.4,0.2-0.6,0.5-1
	c1.3-1.6,2.2-2.7,2-4.2l-0.1-1.1c-0.1-0.7-0.4-1-1.1-0.9l-3.1,0.4c-0.4,0-0.5,0.2-0.5,0.7l0.1,1.1c0.1,1.2,1.7,1,1.8,1.9
	c0.1,0.5-0.2,0.8-0.8,0.9c-0.5,0.1-1.1,0.1-1.6,0.1c-0.5,0.1-1.1,0.2-1.6,0.3c-0.6,0.1-1-0.2-1-0.6c-0.1-0.9,1.5-1.1,1.3-2.3
	l-0.1-1.1c-0.1-0.5-0.2-0.6-0.7-0.6l-2.9,0.4c-1.5,0.2-0.9,1.6-1.8,1.7c-0.4,0-0.7-0.2-0.8-0.8c-0.1-0.6-0.1-1.1-0.3-2.6
	c-0.2-1.4-0.3-2-0.4-2.5c-0.1-0.6,0.2-0.9,0.6-1c0.9-0.1,0.7,1.1,2.1,0.9l9.2-1.2c1.5-0.2,0.9-1.3,1.9-1.4c0.4,0,0.7,0.2,0.8,0.8
	c0.1,0.5,0.1,1.1,0.3,2.5l0.7,5.4c0.1,1,0.7,1,0.7,1.7c0.1,0.5-0.2,0.9-0.9,1.3l-1.9,1.1C134.4,68.7,134.1,68.9,133.6,69L133.6,69z
	 M127,84c-0.5,0-0.9-0.2-1.7-0.5l-2.2-1c-0.8-0.4-1.1-0.7-1.1-1.2c0-0.6,0.5-0.7,0.5-1.7v-6.2c0-1.4-0.1-1.9-0.1-2.5
	c0-0.6,0.3-0.9,0.7-0.9c0.9,0,0.5,1.2,2,1.2h9.2c1.5,0,1.1-1.2,2-1.2c0.4,0,0.7,0.3,0.7,0.9c0,0.5-0.1,1-0.1,2.5v5.5
	c0,1,0.5,1.1,0.5,1.7c0,0.5-0.3,0.9-1.1,1.2l-2,0.9c-0.8,0.4-1.1,0.5-1.7,0.5c-0.5,0-0.8-0.4-0.8-0.7s0.2-0.6,0.6-0.9
	c1.5-1.4,2.5-2.3,2.5-4v-1c0-0.8-0.3-1-1-1h-2.8c-0.4,0-0.6,0.1-0.6,0.7v0.5c0,1.2,1.4,1.2,1.4,2.1c0,0.5-0.3,0.8-0.9,0.8
	c-0.5,0-1-0.1-1.5-0.1c-0.5,0-1,0.1-1.5,0.1c-0.7,0-0.9-0.3-0.9-0.8c0-0.9,1.4-0.9,1.4-2.1v-0.5c0-0.5-0.2-0.7-0.6-0.7h-3
	c-0.7,0-1,0.3-1,1V78c0,1.8,1,2.8,2.7,4.3c0.4,0.3,0.6,0.6,0.6,0.9C127.8,83.6,127.5,84,127,84L127,84z M8.2,94.4
	c0,1.5-0.9,2.8-4,2.8c-0.7,0-0.8-0.1-0.8,0.3v0.8c0,0.8,0.8,0.5,0.8,1.1c0,0.2-0.2,0.4-0.5,0.4c-0.3,0-0.7,0-1.6,0
	c-0.8,0-1.1,0-1.4,0c-0.4,0-0.5-0.2-0.5-0.4c0-0.5,0.7-0.3,0.7-1.1V93c0-0.8-0.7-0.6-0.7-1.1c0-0.2,0.2-0.4,0.6-0.4
	c0.3,0,0.5,0,1.3,0c0.5,0,1.2-0.1,1.9-0.1C6.8,91.4,8.2,92.6,8.2,94.4L8.2,94.4z M5.5,94.4c0-1.2-0.6-1.8-1.5-1.8
	c-0.7,0-0.7,0.3-0.7,0.5v2.6c0,0.4,0.2,0.5,0.7,0.5C5,96.1,5.5,95.5,5.5,94.4L5.5,94.4z M17.3,99.4c0,0.2-0.2,0.3-0.4,0.3
	c-0.4,0-1,0-1.7,0c-0.7,0-1.2,0-1.5,0c-0.4,0-0.6-0.1-0.6-0.4c0-0.5,0.5-0.3,0.5-0.7c0-0.2-0.2-0.5-0.4-0.7l-0.5-0.7
	c-0.2-0.3-0.4-0.4-0.6-0.4h-0.3c-0.2,0-0.2,0.1-0.2,0.3v1.1c0,0.8,0.7,0.6,0.7,1.1c0,0.2-0.2,0.4-0.5,0.4c-0.3,0-0.6,0-1.4,0
	c-0.8,0-1.1,0-1.4,0c-0.4,0-0.5-0.2-0.5-0.4c0-0.5,0.7-0.3,0.7-1.1V93c0-0.8-0.7-0.6-0.7-1.1c0-0.2,0.1-0.4,0.6-0.4
	c0.2,0,0.7,0,1.1,0c0.5,0,1.4-0.1,2.1-0.1c2.8,0,4.1,1.1,4.1,2.8c0,1.1-0.6,2-1.6,2.3l1,1.3C16.7,98.9,17.3,98.8,17.3,99.4
	L17.3,99.4z M13.9,94.3c0-1.2-0.7-1.7-1.6-1.7c-0.3,0-0.6,0.1-0.6,0.5v2.5c0,0.3,0.2,0.4,0.6,0.4C13.4,95.9,13.9,95.4,13.9,94.3
	L13.9,94.3z M26,97.2c0,0.3-0.1,0.5-0.3,0.9l-0.6,1.2c-0.2,0.4-0.4,0.6-0.7,0.6c-0.3,0-0.4-0.3-1-0.3H20c-0.8,0-1.1,0-1.4,0
	c-0.4,0-0.5-0.2-0.5-0.4c0-0.5,0.7-0.3,0.7-1.1V93c0-0.8-0.7-0.6-0.7-1.1c0-0.2,0.2-0.4,0.5-0.4c0.3,0,0.6,0,1.4,0h3
	c0.6,0,0.6-0.3,1-0.3c0.3,0,0.5,0.2,0.7,0.6l0.5,1.1c0.2,0.4,0.3,0.6,0.3,0.9c0,0.3-0.2,0.5-0.4,0.5s-0.3-0.1-0.5-0.3
	c-0.8-0.8-1.3-1.4-2.2-1.4h-0.5c-0.4,0-0.6,0.2-0.6,0.5v1.6c0,0.2,0.1,0.3,0.4,0.3h0.3c0.7,0,0.7-0.8,1.2-0.8c0.3,0,0.4,0.2,0.4,0.5
	c0,0.3,0,0.5,0,0.8c0,0.3,0,0.5,0,0.8c0,0.4-0.2,0.5-0.4,0.5c-0.5,0-0.5-0.8-1.2-0.8h-0.3c-0.3,0-0.4,0.1-0.4,0.3v1.7
	c0,0.4,0.2,0.5,0.6,0.5h0.9c1,0,1.6-0.6,2.4-1.5c0.2-0.2,0.3-0.3,0.5-0.3C25.7,96.8,26,97,26,97.2L26,97.2z M35.1,91.8
	c0,0.6-0.7,0.4-1.1,1.4l-2.3,5.9c-0.2,0.5-0.4,0.7-1.4,0.7c-0.9,0-1.2-0.2-1.4-0.7l-2.3-5.9c-0.4-0.9-1-0.8-1-1.4
	c0-0.2,0.2-0.4,0.4-0.4c0.4,0,0.8,0,1.6,0c0.8,0,1.3,0,1.7,0c0.4,0,0.6,0.2,0.6,0.4c0,0.6-0.8,0.4-0.8,1c0,0.2,0.1,0.4,0.2,0.7
	l1.5,4l1.6-4.2c0.1-0.3,0.2-0.5,0.2-0.6c0-0.6-0.9-0.4-0.9-1c0-0.3,0.2-0.4,0.6-0.4c0.4,0,0.8,0,1.1,0s0.7,0,1.1,0
	C35,91.5,35.1,91.6,35.1,91.8L35.1,91.8z M43.7,97.2c0,0.3-0.1,0.5-0.3,0.9l-0.6,1.2c-0.2,0.4-0.4,0.6-0.7,0.6c-0.3,0-0.4-0.3-1-0.3
	h-3.5c-0.8,0-1.1,0-1.4,0c-0.4,0-0.5-0.2-0.5-0.4c0-0.5,0.7-0.3,0.7-1.1V93c0-0.8-0.7-0.6-0.7-1.1c0-0.2,0.2-0.4,0.5-0.4
	c0.3,0,0.6,0,1.4,0h3c0.6,0,0.6-0.3,1-0.3c0.3,0,0.5,0.2,0.7,0.6l0.5,1.1c0.2,0.4,0.3,0.6,0.3,0.9c0,0.3-0.2,0.5-0.4,0.5
	s-0.3-0.1-0.5-0.3c-0.8-0.8-1.3-1.4-2.2-1.4h-0.5c-0.4,0-0.6,0.2-0.6,0.5v1.6c0,0.2,0.1,0.3,0.4,0.3h0.3c0.7,0,0.7-0.8,1.2-0.8
	c0.3,0,0.4,0.2,0.4,0.5c0,0.3,0,0.5,0,0.8c0,0.3,0,0.5,0,0.8c0,0.4-0.2,0.5-0.4,0.5c-0.5,0-0.5-0.8-1.2-0.8h-0.3
	c-0.3,0-0.4,0.1-0.4,0.3v1.7c0,0.4,0.2,0.5,0.6,0.5h0.9c1,0,1.6-0.6,2.4-1.5c0.2-0.2,0.3-0.3,0.5-0.3C43.4,96.8,43.7,97,43.7,97.2
	L43.7,97.2z M52.2,91.9c0,0.5-0.7,0.3-0.7,1.1v6.2c0,0.4-0.3,0.6-0.6,0.6c-0.4,0-0.6-0.2-0.9-0.5l-4.3-5v3.8c0,0.8,0.9,0.5,0.9,1.1
	c0,0.3-0.2,0.4-0.6,0.4c-0.3,0-0.7,0-1,0c-0.3,0-0.6,0-0.9,0c-0.4,0-0.5-0.2-0.5-0.4c0-0.5,0.7-0.3,0.7-1.1V93
	c0-0.8-0.7-0.6-0.7-1.1c0-0.2,0.2-0.4,0.6-0.4c0.3,0,0.6,0,0.9,0c0.3,0,0.6,0,0.9,0c0.3,0,0.5,0.1,0.7,0.4l3.4,3.9V93
	c0-0.8-0.9-0.5-0.9-1.1c0-0.2,0.2-0.4,0.6-0.4c0.3,0,0.7,0,1,0c0.3,0,0.6,0,0.9,0C52.1,91.5,52.2,91.7,52.2,91.9z M54.9,99.3
	c0-0.6,0.8-0.3,0.8-1.1v-5c0-0.4-0.2-0.6-0.5-0.6h-0.1c-0.6,0-1,0.6-1.8,1.4c-0.2,0.2-0.3,0.3-0.5,0.3c-0.2,0-0.4-0.2-0.4-0.5
	c0-0.3,0.1-0.5,0.3-0.9l0.4-1.1c0.2-0.4,0.4-0.6,0.6-0.6c0.3,0,0.4,0.3,1,0.3h4.5c0.6,0,0.6-0.3,1-0.3c0.3,0,0.5,0.2,0.6,0.6
	l0.4,1.1c0.2,0.4,0.3,0.6,0.3,0.9c0,0.3-0.2,0.5-0.4,0.5c-0.2,0-0.3-0.1-0.5-0.3c-0.8-0.8-1.2-1.4-1.8-1.4h-0.1
	c-0.4,0-0.5,0.2-0.5,0.6v5c0,0.8,0.8,0.5,0.8,1.1c0,0.2-0.2,0.4-0.5,0.4c-0.3,0-0.7,0-1.6,0c-0.9,0-1.2,0-1.6,0
	C55,99.7,54.9,99.5,54.9,99.3L54.9,99.3z M65.5,95.8c0-2.8,2.1-4.6,4.6-4.6s4.6,1.8,4.6,4.5c0,2.7-1.8,4.2-4.6,4.2
	C67.5,100,65.5,98.5,65.5,95.8L65.5,95.8z M72,95.6c0-1.5-0.5-3.3-1.9-3.3c-1.4,0-1.9,1.7-1.9,3.3c0,1.6,0.6,3.1,1.9,3.1
	C71.5,98.8,72,97.3,72,95.6L72,95.6z M83.8,91.8c0,0.6-0.7,0.4-1.1,1.4l-2.3,5.9c-0.2,0.5-0.4,0.7-1.4,0.7c-0.9,0-1.2-0.2-1.4-0.7
	l-2.3-5.9c-0.4-0.9-1-0.8-1-1.4c0-0.2,0.2-0.4,0.4-0.4c0.4,0,0.8,0,1.6,0c0.8,0,1.3,0,1.7,0c0.4,0,0.6,0.2,0.6,0.4
	c0,0.6-0.8,0.4-0.8,1c0,0.2,0.1,0.4,0.2,0.7l1.5,4l1.6-4.2c0.1-0.3,0.2-0.5,0.2-0.6c0-0.6-0.9-0.4-0.9-1c0-0.3,0.2-0.4,0.6-0.4
	c0.4,0,0.8,0,1.1,0c0.3,0,0.7,0,1.1,0C83.7,91.5,83.8,91.6,83.8,91.8L83.8,91.8z M92.4,97.2c0,0.3-0.1,0.5-0.3,0.9l-0.6,1.2
	c-0.2,0.4-0.4,0.6-0.7,0.6c-0.3,0-0.4-0.3-1-0.3h-3.5c-0.8,0-1.1,0-1.4,0c-0.4,0-0.5-0.2-0.5-0.4c0-0.5,0.7-0.3,0.7-1.1V93
	c0-0.8-0.7-0.6-0.7-1.1c0-0.2,0.2-0.4,0.5-0.4c0.3,0,0.6,0,1.4,0h3c0.6,0,0.6-0.3,1-0.3c0.3,0,0.5,0.2,0.7,0.6l0.5,1.1
	c0.2,0.4,0.3,0.6,0.3,0.9c0,0.3-0.2,0.5-0.4,0.5c-0.2,0-0.3-0.1-0.5-0.3c-0.8-0.8-1.3-1.4-2.2-1.4h-0.5c-0.4,0-0.6,0.2-0.6,0.5v1.6
	c0,0.2,0.1,0.3,0.4,0.3h0.3c0.7,0,0.7-0.8,1.2-0.8c0.3,0,0.4,0.2,0.4,0.5c0,0.3,0,0.5,0,0.8c0,0.3,0,0.5,0,0.8
	c0,0.4-0.2,0.5-0.4,0.5c-0.5,0-0.5-0.8-1.2-0.8h-0.3c-0.3,0-0.4,0.1-0.4,0.3v1.7c0,0.4,0.2,0.5,0.6,0.5H89c1,0,1.6-0.6,2.4-1.5
	c0.2-0.2,0.3-0.3,0.5-0.3C92.1,96.8,92.3,97,92.4,97.2L92.4,97.2z M101.6,99.4c0,0.2-0.2,0.3-0.4,0.3c-0.4,0-1,0-1.7,0
	c-0.7,0-1.2,0-1.5,0c-0.4,0-0.6-0.1-0.6-0.4c0-0.5,0.5-0.3,0.5-0.7c0-0.2-0.2-0.5-0.4-0.7L97,97.2c-0.2-0.3-0.4-0.4-0.6-0.4h-0.3
	c-0.2,0-0.2,0.1-0.2,0.3v1.1c0,0.8,0.7,0.6,0.7,1.1c0,0.2-0.2,0.4-0.5,0.4c-0.3,0-0.6,0-1.4,0c-0.8,0-1.1,0-1.4,0
	c-0.4,0-0.5-0.2-0.5-0.4c0-0.5,0.7-0.3,0.7-1.1V93c0-0.8-0.7-0.6-0.7-1.1c0-0.2,0.1-0.4,0.6-0.4c0.2,0,0.7,0,1.1,0
	c0.5,0,1.4-0.1,2.1-0.1c2.8,0,4.1,1.1,4.1,2.8c0,1.1-0.6,2-1.6,2.3l1,1.3C101,98.9,101.6,98.8,101.6,99.4L101.6,99.4z M98.1,94.3
	c0-1.2-0.7-1.7-1.6-1.7c-0.3,0-0.6,0.1-0.6,0.5v2.5c0,0.3,0.2,0.4,0.6,0.4C97.6,95.9,98.1,95.4,98.1,94.3L98.1,94.3z M104.2,99.7
	c-0.8,0-1.1,0-1.4,0c-0.4,0-0.5-0.2-0.5-0.4c0-0.5,0.7-0.3,0.7-1.1V93c0-0.8-0.7-0.6-0.7-1.1c0-0.2,0.2-0.4,0.5-0.4
	c0.3,0,0.6,0,1.4,0c0.7,0,1.4-0.1,2.1-0.1c2.5,0,4.8,1.5,4.8,4.2c0,2.3-1.6,4.1-4.4,4.1C105.9,99.8,105.1,99.7,104.2,99.7z
	 M106.3,98.7c1.4,0,2.1-0.9,2.1-3c0-2.1-1-3.1-2.2-3.1H106c-0.4,0-0.6,0.2-0.6,0.5v5c0,0.4,0.2,0.5,0.6,0.5H106.3z M111.9,95.8
	c0-2.8,2.1-4.6,4.6-4.6c2.5,0,4.6,1.8,4.6,4.5c0,2.7-1.8,4.2-4.6,4.2C113.9,100,111.9,98.5,111.9,95.8L111.9,95.8z M118.4,95.6
	c0-1.5-0.5-3.3-1.9-3.3s-1.9,1.7-1.9,3.3c0,1.6,0.6,3.1,1.9,3.1C117.9,98.8,118.4,97.3,118.4,95.6L118.4,95.6z M122.5,99.4l-0.5-1.1
	c-0.2-0.5-0.4-0.8-0.4-1.1c0-0.3,0.2-0.5,0.4-0.5c0.2,0,0.4,0.2,0.5,0.3c0.7,0.7,1.7,1.7,3.1,1.7c0.9,0,1.3-0.4,1.3-0.9
	c0-0.7-0.8-0.9-1.9-1.3c-1.4-0.4-3.2-1-3.2-2.8c0-1.4,1.2-2.4,2.7-2.4c0.9,0,1.4,0.3,1.7,0.3s0.3-0.4,0.6-0.4c0.4,0,0.5,0.3,0.8,0.8
	l0.3,0.5c0.4,0.6,0.5,1,0.5,1.2c0,0.2-0.2,0.4-0.3,0.4c-0.2,0-0.4-0.1-0.6-0.3c-0.5-0.6-1.5-1.3-2.6-1.3c-0.6,0-1,0.3-1,0.7
	c0,0.5,0.6,0.7,1.6,1c1.8,0.5,3.5,1.1,3.5,3c0,1.7-1.4,2.8-3.4,2.8c-1,0-1.7-0.3-2-0.3c-0.4,0-0.4,0.4-0.7,0.4
	C122.8,100,122.6,99.7,122.5,99.4z M137.3,97.2c0,0.3-0.1,0.5-0.3,0.9l-0.6,1.2c-0.2,0.4-0.4,0.6-0.7,0.6c-0.3,0-0.4-0.3-1-0.3h-3.5
	c-0.8,0-1.1,0-1.4,0c-0.4,0-0.5-0.2-0.5-0.4c0-0.5,0.7-0.3,0.7-1.1V93c0-0.8-0.7-0.6-0.7-1.1c0-0.2,0.2-0.4,0.5-0.4
	c0.3,0,0.6,0,1.4,0h3c0.6,0,0.6-0.3,1-0.3c0.3,0,0.5,0.2,0.7,0.6l0.5,1.1c0.2,0.4,0.3,0.6,0.3,0.9c0,0.3-0.2,0.5-0.4,0.5
	c-0.2,0-0.3-0.1-0.5-0.3c-0.8-0.8-1.3-1.4-2.2-1.4h-0.5c-0.4,0-0.6,0.2-0.6,0.5v1.6c0,0.2,0.1,0.3,0.4,0.3h0.3
	c0.7,0,0.7-0.8,1.2-0.8c0.3,0,0.4,0.2,0.4,0.5c0,0.3,0,0.5,0,0.8c0,0.3,0,0.5,0,0.8c0,0.4-0.2,0.5-0.4,0.5c-0.5,0-0.5-0.8-1.2-0.8
	h-0.3c-0.3,0-0.4,0.1-0.4,0.3v1.7c0,0.4,0.2,0.5,0.6,0.5h0.9c1,0,1.6-0.6,2.4-1.5c0.2-0.2,0.3-0.3,0.5-0.3
	C137.1,96.8,137.3,97,137.3,97.2L137.3,97.2z M61,51.3c-1.3,0-1.6,1.4-1.6,2.6c0,0.3,0.4,0.4,0.6,0.5c1,0.2,2.4,0,2.5-0.3
	c0.1-0.4,0-1.5-0.5-2.2C61.8,51.5,61.5,51.3,61,51.3z M93.5,48c-1,0-1.8,0.6-2.1,1.6c-0.5,1.5-1.7,8.3-5.3,10.8
	c-3.8,2.6-10.3,3-14.3,3c-2,0-3.3-0.1-3.5-0.1c-0.1,0-0.2-0.1-0.2-0.2c0-0.1,0.1-0.2,0.2-0.2c0,0,3,0.2,6.7,0
	c3.3-0.2,7.9-0.9,10.8-2.9c3.4-2.3,5.3-9.3,5.4-13.6c0.1-2.5-0.7-3.5-2.1-3.6c-1.7-0.1-2.3,1.4-2.4,2.2c-0.3,2.4-1.3,7.8-3.8,10.2
	c-2.5,2.4-6.4,3.3-9.1,3.6c-1.3,0.2-2.6,0.2-3.5,0.2c-1.2,0-1.9-0.1-1.9-0.1c-0.1,0-0.2-0.1-0.2-0.2c0-0.1,0.1-0.2,0.2-0.2
	c0.1,0,9.5,0.8,14.2-3.6c3-2.9,3.9-11.5,3.8-12.2c-0.2-1.7-1.1-2.9-2.7-2.9c-1.7,0-2.1,1.6-2.4,3.1c-0.1,0.5-0.2,2.3-0.4,3.7
	c-0.4,2.4-1.2,4.3-2.5,5.6c-1.2,1.2-3.4,2.1-6.6,2.5c-1.9,0.3-3.6,0.3-4.2,0.3c-0.1,0-0.2,0-0.2,0c-0.1,0-0.2-0.1-0.2-0.2
	c0-0.1,0.1-0.2,0.2-0.2c0.1,0,7.9,0.1,10.6-2.7c1.9-2,2.6-5.2,2.6-7.7c0-0.5-0.2-1.7-1.6-1.8c-1.4,0-1.7,0.9-2,2.1
	c-0.2,0.7-0.5,4.1-2.7,5.4c-2.5,1.5-6.2,1.5-10.7,2c0.3,1,0.4,2,0.4,2.8c0.2,2.4-0.2,7.7-0.2,7.7c0,0.1-0.1,0.2-0.2,0.2
	c-0.1,0-0.2-0.1-0.2-0.2c0-0.1,0.3-5.2,0.2-7.7c-0.1-0.8-0.3-3.4-1.2-4.3c-0.4-0.4-0.8-0.6-1.3-0.6c-1.5,0-2.4,0.8-2.7,2.4
	c-0.1,0.3-0.3,1.8-0.4,2.6c-0.1,0.5-0.2,1.1-0.2,1.6c-0.6,3.6-1.4,9.1-1.4,9.2c0,0.1-0.1,0.2-0.2,0.2c0,0,0,0,0,0
	c-0.1,0-0.2-0.1-0.2-0.2c0-0.1,0.8-5.7,1.4-9.2c0.1-0.5,0.2-1.1,0.2-1.6c0.1-0.7,0.2-1.4,0.3-2.1l-0.5,0.1c-4.8,0.7-9.9,1.6-12.9,5
	c-3.7,4.2-4,8-4.6,11.8c-0.2,1.6-0.6,9.2-0.2,11.2c0.5,2.3,4.2,2.9,9.4,2.9c4.4,0,8.5-0.7,9.5-2.3c0.2-0.4,0.3-0.8,0.3-1.2
	c0-0.5,0-1.4-0.1-2.4c-0.1-2.7,0.6-5.2,2.8-7.1c2.9-2.6,12.3-2,15.9-2.2c6.5-0.4,11.4-2.5,14.6-5.7c2.8-2.9,3.8-8.7,3.8-11.1
	C96.1,50.1,95.7,48.1,93.5,48L93.5,48z M63,54.1c-0.1,0.4-1.1,0.6-2,0.6c-0.2,0-0.5,0-0.7,0c-1-0.2-1.2-0.6-1.2-0.9
	c0-1.9,0.7-2.9,2-2.9h0c0.5,0,1,0.2,1.4,0.7C63,52.4,63.1,53.6,63,54.1L63,54.1z"/>
<path class="st1" d="M71,32.6c-0.2-0.4-0.5-0.9-1.3-1c-0.6,0-2.5-0.2-4.2-0.2c-0.1-1.7-0.4-8.8-0.8-9.4c-0.4-0.6-1.1-0.8-1.7-0.8
	c-0.9,0-1.3,0.4-1.6,0.9c-0.2,0.4-0.6,7-0.7,9.3c-2,0.1-4,0.3-4.3,0.4c-0.4,0.1-0.6,0.3-0.7,0.8s-0.6,9.7-0.3,10.1
	c0.3,0.4,2.1,0.4,2.7,0.3c0.5-0.2,0.4-5.8,1.5-6.7c0.6-0.5,1.4-0.9,2.3-1.1c0,1.4-0.1,4.7,0,5c0.2,0.4,0.9,0.7,1.7,0.7
	c0.8,0,1.3-0.4,1.3-0.6c0-0.2,0-3.7,0-5.1c1.2,0.2,1.9,0.6,2.6,1.3c0.8,0.8,0.4,6,1.1,6.5c0.7,0.4,2.5,0.3,3-0.1
	C72.2,42.3,71.2,32.9,71,32.6L71,32.6z M65.5,32.4c0,0-0.7,0.8-2.3,0.8c-1.7,0-2.4-0.8-2.4-0.8c-0.1-0.1-0.1-0.2,0-0.3
	c0.1-0.1,0.2-0.1,0.3,0c0,0,0.7,0.7,2.1,0.7s2-0.7,2-0.7c0.1-0.1,0.2-0.1,0.3,0C65.6,32.1,65.6,32.3,65.5,32.4L65.5,32.4z"/>
<g>
	<g>
		<g>
			<path class="st2" d="M15,75.6c-0.9,0-0.5,1.4-2,1.4h-2.9c-0.4,0-0.5-0.1-0.5-0.6v-1c0-1.2,1.6-1.2,1.6-2c0-0.5-0.3-0.8-1-0.8
				c-0.5,0-1.1,0.1-1.6,0.1c-0.5,0-1.1-0.1-1.6-0.1c-0.6,0-1,0.3-1,0.8c0,0.9,1.5,1,1.5,2v1c0,0.5-0.1,0.6-0.5,0.6H4
				c-0.6,0-1-0.3-1-1v-1c0-1.5,1-2.4,2.5-3.8c0.3-0.3,0.6-0.5,0.6-1c0-0.3-0.3-0.8-0.8-0.8c-0.5,0-0.9,0.2-1.6,0.5l-2,0.9
				c-0.8,0.3-1.1,0.7-1.1,1.2c0,0.6,0.5,0.8,0.5,1.7v5.3C1.1,80.5,1,81,1,81.6c0,0.6,0.3,0.9,0.7,0.9c0.9,0,0.5-1.2,2-1.2h9.1
				c1.4,0,1.1,1.2,2,1.2c0.3,0,0.7-0.3,0.7-0.9c0-0.5-0.1-1.1-0.1-2.5c0-1.5,0.1-2,0.1-2.6C15.6,75.9,15.3,75.6,15,75.6z"/>
			<path class="st2" d="M16.2,53.8c-1-0.1-0.9,1-2.9,2.2l-2.5,1.6c-0.5-1.9-1.8-3.1-3.8-3.3C4,53.9,1.8,56.1,1.3,61
				c-0.1,1.3-0.1,2.9-0.2,3.8c-0.1,0.9-0.3,1.7-0.3,2c-0.1,0.8,0.3,1.1,0.6,1.1c0.9,0.1,0.7-1.1,2.1-1l9.1,1c1.4,0.1,1,1.3,1.8,1.4
				c0.3,0.1,0.8-0.2,0.8-0.8c0.1-0.5,0.1-1,0.2-2.5c0.1-1.4,0.3-1.9,0.3-2.5c0.1-0.6-0.3-0.9-0.6-1c-0.9-0.1-0.7,1.2-2.1,1l-1.9-0.2
				c-0.3-0.1-0.5-0.2-0.4-0.4l0.1-0.5c0.1-0.5,0.3-0.7,0.8-1l1.3-0.8c0.4-0.3,0.9-0.5,1.3-0.5c0.8,0.1,0.3,1,1.2,1
				c0.4,0.1,0.8-0.3,0.8-1c0.1-0.5,0.1-1.4,0.2-2.7c0.1-1.3,0.3-2.4,0.4-3.1C16.8,54.2,16.5,53.9,16.2,53.8z M9.2,62.1
				c-0.1,0.7-0.2,1.1-0.8,1L4,62.7c-0.8-0.1-0.8-0.5-0.8-1.2c0.2-1.6,1.2-2.8,3.3-2.6C8.6,59.2,9.4,60.2,9.2,62.1z"/>
			<path class="st2" d="M19.4,45.9c-0.8-0.3-0.9,0.9-2.3,0.4l-8.6-3.1c-1.4-0.5-0.6-1.5-1.5-1.8c-0.3-0.1-0.8,0-1,0.6
				c-0.2,0.5-0.3,1-0.8,2.3c-0.5,1.3-0.7,1.6-0.9,2.2c-0.2,0.6,0,1,0.3,1.2C5.5,48,5.6,46.7,7,47.2l8.6,3.1c1.4,0.5,0.6,1.5,1.5,1.8
				c0.3,0.1,0.8,0,1-0.6c0.2-0.5,0.3-1,0.8-2.3c0.5-1.3,0.7-1.8,0.9-2.3C20,46.4,19.7,46,19.4,45.9z"/>
			<path class="st2" d="M25.2,32c-0.5-0.8-0.7-1.1-1.1-1.4c-0.4-0.3-0.9-0.1-1.1,0.2c-0.2,0.3-0.1,0.6,0,1.1c0.6,2.1,0.9,3.6,0,5
				l-0.8,1.3c-0.4,0.6-0.8,0.7-1.4,0.3L18.3,37c-0.3-0.2-0.4-0.4-0.1-0.8l0.3-0.4c0.6-1,1.8-0.3,2.3-1c0.3-0.4,0.1-0.8-0.4-1.2
				c-0.4-0.3-0.8-0.5-1.2-0.8c-0.4-0.3-0.8-0.5-1.2-0.8c-0.5-0.3-1-0.3-1.2,0.1c-0.5,0.8,0.7,1.6,0.1,2.5l-0.3,0.4
				c-0.3,0.4-0.5,0.5-0.8,0.3l-2.3-1.5c-0.5-0.3-0.7-0.8-0.3-1.4l0.5-0.8c0.9-1.4,2.3-1.6,4.2-2c0.5-0.1,0.8-0.1,1-0.5
				c0.2-0.3,0.1-0.8-0.3-1c-0.4-0.3-0.8-0.3-1.7-0.4l-2.1-0.3c-0.8-0.1-1.3,0-1.6,0.4c-0.3,0.5,0.1,0.9-0.5,1.7l-2.9,4.6
				c-0.8,1.2-1.1,1.6-1.4,2c-0.3,0.5-0.2,1,0.1,1.2c0.8,0.5,1.1-0.7,2.3,0.1l7.7,4.9c1.2,0.8,0.3,1.6,1.1,2c0.3,0.2,0.8,0.1,1.1-0.3
				c0.3-0.5,0.5-0.9,1.2-2.1l3.3-5.2c0.5-0.8,1-0.7,1.4-1.2c0.3-0.4,0.2-0.9-0.3-1.6L25.2,32z"/>
			<path class="st2" d="M30.5,14.7c-1-1.1,0.2-1.6-0.4-2.3c-0.3-0.3-0.7-0.3-1.2,0.1c-0.4,0.4-0.8,0.8-1.2,1.2
				c-0.4,0.3-0.8,0.7-1.3,1.1c-0.5,0.4-0.5,0.9-0.3,1.2c0.7,0.8,1.6-0.7,2.5,0.4l3.3,3.6l-9-1.2c-0.6-0.1-1,0-1.4,0.3
				c-0.4,0.3-0.7,0.7-1.2,1.1c-0.3,0.3-0.8,0.6-1.2,1c-0.5,0.4-0.5,0.9-0.3,1.2c0.6,0.7,1.3-0.4,2.3,0.6l6.1,6.8
				c1,1.1-0.2,1.6,0.4,2.3c0.3,0.3,0.7,0.3,1.2-0.1c0.4-0.4,0.8-0.8,1.2-1.2c0.4-0.3,0.8-0.7,1.3-1.1c0.5-0.4,0.5-0.8,0.3-1.2
				c-0.7-0.8-1.6,0.7-2.5-0.4l-4.5-5.1l11.5,1.5c0.7,0.1,1.2,0.1,1.7-0.3c0.4-0.3,0.5-0.9,0.1-1.5L30.5,14.7z"/>
			<path class="st2" d="M39.1,6.5c-1.1,0.6-2.1,1.4-3.1,2c-1.2,0.7-1.7,0.9-2.2,1.2c-0.5,0.3-0.6,0.8-0.4,1c0.4,0.8,1.3-0.1,2,1.2
				l4.5,8c0.7,1.3-0.5,1.5-0.1,2.3c0.2,0.3,0.5,0.5,1.1,0.2c0.5-0.3,0.9-0.5,2.1-1.2c1.3-0.8,2.7-1.4,4-2.1
				c4.2-2.4,5.2-6.6,3.2-10.1C47.8,4.7,42.9,4.4,39.1,6.5z M45.3,17.7L44.8,18c-0.7,0.3-1,0.2-1.4-0.3l-4.4-7.8
				c-0.3-0.5-0.2-1,0.4-1.3l0.3-0.2c1.9-1.1,4.2-0.4,6.1,2.9C47.8,14.5,47.5,16.5,45.3,17.7z"/>
			<path class="st2" d="M58.8,5.3c-1.9-0.2-3-0.3-3.1-1.2c-0.1-0.8,0.4-1.3,1.5-1.4c1.9-0.3,3.8,0.8,4.9,1.6
				c0.4,0.3,0.7,0.5,1.1,0.4c0.3-0.1,0.5-0.3,0.5-0.8c-0.1-0.4-0.4-1-1.3-1.9l-0.7-0.8c-0.7-0.8-1-1.4-1.6-1.2
				c-0.6,0.1-0.5,0.8-1,0.8s-1.4-0.3-2.9,0c-2.7,0.5-4.5,2.5-4.1,5c0.5,3.1,3.8,3.6,6.4,3.9c2.1,0.2,3.6,0.3,3.8,1.6
				c0.1,0.9-0.5,1.8-2,2c-2.5,0.4-4.5-1-5.9-2c-0.3-0.3-0.6-0.5-1-0.4c-0.3,0.1-0.7,0.4-0.5,1c0.1,0.4,0.4,1,1,1.8l1.2,1.8
				c0.4,0.5,0.8,1,1.2,0.9c0.5-0.1,0.5-0.8,1.2-0.9c0.5-0.1,1.8,0.2,3.6-0.1c3.5-0.6,5.6-2.8,5.1-5.8C65.3,6.1,62,5.6,58.8,5.3z"/>
			<path class="st2" d="M87.6,6.5c0.1-0.5-0.1-0.9-0.2-1.7l-0.5-2.1c-0.2-0.8-0.5-1.2-1-1.3c-0.6-0.1-0.8,0.4-1.8,0.2l-5.3-1
				c-1.4-0.3-1.8-0.4-2.4-0.5c-0.6-0.1-1,0.2-1,0.5c-0.1,0.9,1,0.8,0.8,2.2l-1.7,9c-0.3,1.4-1.4,0.8-1.5,1.8
				c-0.1,0.3,0.1,0.8,0.8,0.9c0.5,0.1,1.1,0.1,2.5,0.4c1.4,0.3,2,0.4,2.5,0.5c0.6,0.1,1-0.2,1-0.5c0.1-0.9-1.3-0.8-1-2.3l0.5-2.8
				c0.1-0.4,0.3-0.5,0.8-0.4l1,0.2c1.2,0.2,0.9,1.8,1.8,1.9c0.5,0.1,0.8-0.1,0.9-0.8c0.1-0.5,0.1-1.1,0.2-1.6c0.1-0.5,0.3-1,0.3-1.5
				c0.1-0.6-0.1-1-0.5-1C83,6.5,82.5,8,81.5,7.7l-1-0.2c-0.5-0.1-0.6-0.3-0.5-0.7l0.5-3c0.1-0.6,0.4-0.9,1.2-0.8l1,0.2
				c1.4,0.3,2.2,1.4,3.3,3.2c0.3,0.4,0.5,0.7,0.8,0.8C87.1,7.2,87.5,6.9,87.6,6.5z"/>
			<path class="st2" d="M101.9,16.6c2-4.3,0.2-8.7-3.9-10.7C94,4,89.4,5.3,87.3,9.7c-2,4.4,0.1,8.1,4.2,10
				C95.9,21.9,100,20.8,101.9,16.6z M97.8,14.3c-1.2,2.6-3.2,4.6-5.4,3.6c-2.1-1-1.8-3.9-0.7-6.3C92.9,9,95,6.7,97.2,7.7
				C99.4,8.7,98.9,11.9,97.8,14.3z"/>
			<path class="st2" d="M110.7,25.9c1.8,0.8,3.6,0.3,4.9-1.2c2-2.3,1.5-5.3-2.2-8.5c-1-0.9-2.3-1.8-2.9-2.4
				c-0.7-0.5-1.2-1.2-1.5-1.4c-0.6-0.5-1-0.4-1.2-0.1c-0.6,0.7,0.5,1.2-0.4,2.3l-6.1,6.9c-1,1.1-1.6,0.1-2.2,0.8
				c-0.3,0.3-0.3,0.7,0.2,1.1c0.4,0.3,0.8,0.6,1.8,1.6c1,0.9,1.4,1.3,1.8,1.7c0.5,0.4,0.9,0.3,1.2,0.1c0.6-0.7-0.5-1.2,0.4-2.3
				l1.3-1.4c0.2-0.3,0.4-0.3,0.6-0.1l0.3,0.3c0.3,0.3,0.4,0.6,0.4,1.2l-0.1,1.5c-0.1,0.5-0.1,1.1-0.3,1.4c-0.5,0.6-1-0.2-1.5,0.4
				c-0.3,0.3-0.2,0.8,0.3,1.2c0.4,0.3,1.2,0.9,2,1.7c1,0.9,1.8,1.6,2.3,2c0.3,0.3,0.7,0.3,1,0c0.7-0.8-0.3-1.3-0.1-3.7L110.7,25.9z
				 M107.9,22c-0.5-0.5-0.8-0.8-0.4-1.3l2.9-3.3c0.5-0.5,1-0.3,1.4,0c1.2,1.1,1.6,2.5,0.1,4.2C110.6,23.3,109.4,23.3,107.9,22z"/>
			<path class="st2" d="M123.2,46.5c0.5-0.2,0.5-0.7,0.4-1c-0.2-0.3-0.5-0.4-1-0.5c-2.2-0.5-3.7-1.1-4.4-2.3l-0.3-0.7
				c-0.3-0.7-0.2-1,0.3-1.4l7.9-4.2c1.3-0.7,1.5,0.5,2.3,0.1c0.3-0.2,0.5-0.5,0.2-1.1c-0.3-0.5-0.5-0.9-1.2-2.1
				c-0.7-1.2-0.8-1.6-1-2.1c-0.3-0.5-0.8-0.7-1.1-0.5c-0.8,0.4,0.1,1.3-1.2,2l-8.1,4.3c-1.3,0.7-1.5-0.5-2.3-0.1
				c-0.3,0.2-0.5,0.5-0.2,1.1c0.3,0.5,0.5,0.9,1.2,2.1l2.5,4.6c0.5,0.9,0.1,1.2,0.3,1.8c0.3,0.5,0.7,0.6,1.5,0.5l2.4-0.1
				C122.3,46.7,122.7,46.7,123.2,46.5z"/>
			<path class="st2" d="M123,53.6l8.8-2.5c1.4-0.4,1.4,0.8,2.3,0.5c0.3-0.1,0.6-0.5,0.4-1c-0.1-0.5-0.3-1-0.8-2.3
				c-0.4-1.4-0.4-1.8-0.6-2.3c-0.2-0.6-0.6-0.9-1-0.8c-0.9,0.3-0.2,1.3-1.6,1.7l-8.8,2.5c-1.4,0.4-1.4-0.8-2.3-0.5
				c-0.3,0.1-0.6,0.5-0.4,1c0.1,0.5,0.3,1,0.8,2.3c0.4,1.4,0.5,1.8,0.6,2.4c0.2,0.6,0.5,0.8,1,0.7C122.2,54.9,121.5,53.9,123,53.6z"
				/>
			<path class="st2" d="M122.8,63.3c0.9-0.1,0.3-1.5,1.8-1.6l2.9-0.3c0.4-0.1,0.5,0.1,0.6,0.5l0.1,1c0.1,1.2-1.4,1.4-1.3,2.3
				c0.1,0.5,0.3,0.7,1,0.6c0.5-0.1,1.1-0.2,1.6-0.3c0.5-0.1,1.1-0.1,1.6-0.1c0.6-0.1,0.9-0.4,0.8-0.9c-0.1-0.9-1.6-0.8-1.8-1.8
				l-0.1-1c-0.1-0.5,0.1-0.7,0.5-0.7l3.1-0.4c0.6-0.1,1,0.1,1.1,0.9l0.1,1c0.2,1.4-0.8,2.5-2,4.1c-0.3,0.4-0.5,0.6-0.5,1
				c0.1,0.3,0.4,0.7,0.9,0.6c0.5-0.1,0.8-0.3,1.6-0.8l1.9-1.2c0.8-0.4,1-0.8,0.9-1.3c-0.1-0.6-0.6-0.7-0.8-1.6l-0.7-5.3
				c-0.2-1.4-0.2-1.9-0.3-2.5c-0.1-0.6-0.5-0.8-0.8-0.8c-0.9,0.1-0.4,1.2-1.8,1.4l-9.1,1.2c-1.4,0.2-1.2-1-2.1-0.9
				c-0.3,0.1-0.7,0.3-0.6,1c0.1,0.5,0.2,1.1,0.4,2.5c0.2,1.4,0.2,2,0.3,2.6C122,63.1,122.4,63.3,122.8,63.3z"/>
			<path class="st2" d="M136.7,72.3c0-1.4,0.1-1.9,0.1-2.5c0-0.6-0.3-0.9-0.7-0.9c-0.9,0-0.5,1.2-2,1.2h-9.1c-1.4,0-1.1-1.2-2-1.2
				c-0.3,0-0.7,0.3-0.7,0.9c0,0.5,0.1,1,0.1,2.5v6.2c0,1-0.5,1.1-0.5,1.7c0,0.5,0.3,0.8,1.1,1.2l2.2,1c0.8,0.3,1.2,0.5,1.6,0.5
				c0.5,0,0.8-0.3,0.8-0.8c0-0.3-0.2-0.6-0.6-1c-1.7-1.5-2.7-2.5-2.7-4.2v-1.6c0-0.8,0.3-1,1-1h2.9c0.4,0,0.5,0.1,0.5,0.6v0.5
				c0,1.2-1.4,1.2-1.4,2c0,0.5,0.3,0.8,1,0.8c0.5,0,1-0.1,1.4-0.1c0.5,0,1,0.1,1.4,0.1c0.6,0,1-0.3,1-0.8c0-0.9-1.4-1-1.4-2v-0.5
				c0-0.5,0.1-0.6,0.5-0.6h2.8c0.6,0,1,0.3,1,1v1c0,1.7-1,2.5-2.5,4c-0.3,0.3-0.6,0.5-0.6,1c0,0.3,0.3,0.8,0.8,0.8
				c0.5,0,0.9-0.2,1.6-0.5l2-0.9c0.8-0.3,1.1-0.7,1.1-1.2c0-0.6-0.5-0.8-0.5-1.7v-5.4H136.7z"/>
		</g>
		<g>
			<path class="st2" d="M61.2,50.6L61.2,50.6c-1.3,0-1.6,1.4-1.6,2.5c0,0.3,0.4,0.4,0.6,0.5c1,0.2,2.4-0.1,2.5-0.3
				c0.1-0.4,0-1.5-0.5-2.2C61.9,50.8,61.6,50.6,61.2,50.6z"/>
			<path class="st2" d="M93.3,47.4c-1-0.1-1.8,0.6-2,1.6c-0.5,1.4-1.7,8.3-5.3,10.7c-3.8,2.6-10.2,3-14.2,3c-1.9,0-3.3-0.1-3.4-0.1
				c-0.1,0-0.2-0.1-0.2-0.2c0-0.1,0.1-0.2,0.2-0.2c0,0,3,0.2,6.6,0c3.3-0.2,7.9-0.9,10.7-2.8c3.3-2.3,5.2-9.1,5.4-13.4
				c0.1-2.5-0.7-3.5-2.1-3.6c-1.7-0.1-2.3,1.4-2.5,2.2c-0.3,2.4-1.3,7.7-3.8,10c-2.5,2.4-6.3,3.3-9.1,3.6c-1.3,0.1-2.5,0.2-3.5,0.2
				c-1.2,0-1.9-0.1-1.9-0.1c-0.1,0-0.2-0.1-0.2-0.2c0-0.1,0.1-0.2,0.2-0.2c0.1,0,9.5,0.8,14.1-3.6c3-2.8,3.9-11.3,3.8-12.1
				c-0.1-1.7-1-2.9-2.7-2.8c-1.6,0-2.1,1.6-2.3,3.1c-0.1,0.5-0.1,2.3-0.4,3.7c-0.4,2.4-1.2,4.2-2.5,5.5c-1.2,1.2-3.3,2-6.5,2.5
				c-1.9,0.3-3.6,0.3-4.2,0.3c-0.1,0-0.2,0-0.2,0c-0.1,0-0.2-0.1-0.2-0.2c0-0.1,0.1-0.2,0.2-0.2l0,0c0.1,0,7.9,0.1,10.5-2.7
				c1.9-2,2.5-5.1,2.6-7.6c0-0.5-0.2-1.7-1.6-1.7c-1.4,0-1.6,0.9-2,2c-0.2,0.7-0.5,4-2.7,5.3c-2.5,1.5-6.2,1.5-10.7,2
				c0.3,1,0.3,1.9,0.4,2.7c0.1,2.4-0.1,7.6-0.1,7.6c0,0.1-0.1,0.2-0.2,0.2c-0.1,0-0.2-0.1-0.2-0.2s0.3-5.2,0.1-7.6
				c-0.1-0.8-0.3-3.4-1.2-4.3c-0.4-0.4-0.8-0.6-1.2-0.6l0,0c-1.5,0-2.4,0.8-2.7,2.3c-0.1,0.3-0.3,1.8-0.4,2.6
				c-0.1,0.5-0.1,1-0.2,1.6c-0.5,3.5-1.4,9.1-1.4,9.1c0,0.1-0.1,0.2-0.2,0.2l0,0c-0.1,0-0.2-0.1-0.2-0.3c0-0.1,0.8-5.6,1.4-9.1
				c0.1-0.5,0.1-1.1,0.2-1.6c0.1-0.8,0.2-1.4,0.3-2l-0.5,0.1l0,0c-4.8,0.7-9.9,1.6-12.8,5c-3.7,4.2-4,7.9-4.6,11.6
				c-0.2,1.6-0.6,9.1-0.2,11.1c0.5,2.3,4.1,2.9,9.3,2.9c4.4,0,8.5-0.7,9.4-2.3c0.2-0.3,0.3-0.8,0.3-1.2c0-0.5,0-1.4-0.1-2.4
				c-0.1-2.7,0.6-5.1,2.7-7c2.8-2.5,12.2-2,15.8-2.1c6.4-0.3,11.3-2.5,14.5-5.7c2.7-2.9,3.8-8.6,3.8-11
				C95.9,49.4,95.5,47.4,93.3,47.4z M63.1,53.4C63,53.8,62,54,61.1,54c-0.3,0-0.5,0-0.7-0.1c-1-0.1-1.2-0.6-1.2-0.9
				c0.1-1.8,0.8-2.9,2-2.9l0,0c0.5,0,1,0.3,1.4,0.7C63.1,51.7,63.2,52.9,63.1,53.4z"/>
		</g>
		<path class="st3" d="M71.1,32.1c-0.2-0.4-0.5-1-1.3-1c-0.5-0.1-2.5-0.2-4.2-0.3c-0.1-1.7-0.4-8.7-0.8-9.3c-0.4-0.6-1-0.8-1.6-0.8
			c-0.9,0-1.3,0.3-1.6,0.9c-0.1,0.4-0.5,6.9-0.7,9.2c-1.9,0.1-4,0.3-4.2,0.3c-0.4,0.1-0.5,0.3-0.7,0.8c-0.1,0.5-0.6,9.6-0.3,10
			c0.3,0.4,2.1,0.4,2.7,0.3c0.5-0.1,0.4-5.7,1.5-6.6c0.6-0.5,1.4-0.8,2.3-1c-0.1,1.4-0.1,4.6,0,4.9c0.2,0.4,0.9,0.7,1.6,0.7
			c0.8-0.1,1.3-0.3,1.3-0.6c0-0.2,0-3.6,0-5.1c1.2,0.1,1.9,0.5,2.6,1.2c0.8,0.8,0.4,5.9,1.1,6.4c0.7,0.4,2.5,0.3,3-0.1
			C72.2,41.7,71.2,32.4,71.1,32.1z M65.6,31.9c0,0-0.7,0.8-2.3,0.8c-1.6,0-2.4-0.8-2.4-0.8c-0.1-0.1-0.1-0.2,0-0.3
			c0.1-0.1,0.2-0.1,0.3,0c0,0,0.7,0.7,2.1,0.7s2-0.7,2-0.7c0.1-0.1,0.2-0.1,0.3,0C65.6,31.7,65.7,31.8,65.6,31.9z"/>
	</g>
	<g>
		<path class="st2" d="M7.9,95.1c0,1.3-0.8,2.4-3.5,2.4c-0.6,0-0.8-0.1-0.8,0.2v0.7c0,0.7,0.8,0.5,0.8,1c0,0.2-0.1,0.3-0.4,0.3
			s-0.6,0-1.4,0c-0.7,0-1,0-1.2,0C1,99.7,1,99.5,1,99.3c0-0.5,0.5-0.3,0.5-1v-4.5c0-0.8-0.5-0.5-0.5-1c0-0.2,0.2-0.3,0.5-0.3
			c0.3,0,0.5,0,1.2,0c0.5,0,1-0.1,1.7-0.1C6.7,92.5,7.9,93.5,7.9,95.1z M5.5,95c0-1-0.5-1.6-1.4-1.6c-0.5,0-0.5,0.3-0.5,0.5v2.3
			c0,0.3,0.2,0.4,0.5,0.4C5.1,96.5,5.5,96,5.5,95z"/>
		<path class="st2" d="M15.8,99.4c0,0.1-0.1,0.3-0.3,0.3c-0.3,0-0.9,0-1.5,0s-1,0-1.3,0c-0.3,0-0.5-0.1-0.5-0.3
			c0-0.4,0.4-0.3,0.4-0.6c0-0.2-0.2-0.4-0.3-0.6l-0.5-0.6c-0.2-0.3-0.3-0.3-0.5-0.3H11c-0.1,0-0.2,0.1-0.2,0.3v1
			c0,0.8,0.6,0.5,0.6,1c0,0.2-0.1,0.3-0.4,0.3c-0.3,0-0.5,0-1.2,0c-0.7,0-1,0-1.2,0c-0.3,0-0.4-0.1-0.4-0.3c0-0.5,0.5-0.3,0.5-1
			v-4.5c0-0.8-0.5-0.5-0.5-1c0-0.1,0.1-0.3,0.5-0.3c0.1,0,0.5,0,1,0c0.4,0,1.2-0.1,1.8-0.1c2.5,0,3.6,1,3.6,2.5c0,1-0.5,1.7-1.4,2
			l0.9,1.2C15.3,99,15.8,98.9,15.8,99.4z M12.8,94.9c0-1.1-0.6-1.5-1.4-1.5c-0.3,0-0.5,0.1-0.5,0.5V96c0,0.3,0.2,0.3,0.5,0.3
			C12.4,96.4,12.8,96,12.8,94.9z"/>
		<path class="st2" d="M22.9,97.5c0,0.3-0.1,0.4-0.3,0.8l-0.5,1.1c-0.2,0.4-0.3,0.5-0.6,0.5c-0.3,0-0.3-0.3-0.8-0.3h-3.1
			c-0.7,0-1,0-1.2,0c-0.3,0-0.4-0.1-0.4-0.3c0-0.5,0.5-0.3,0.5-1v-4.5c0-0.8-0.5-0.5-0.5-1c0-0.2,0.1-0.3,0.4-0.3c0.3,0,0.5,0,1.2,0
			h2.7c0.5,0,0.5-0.3,0.8-0.3c0.3,0,0.4,0.1,0.6,0.5l0.4,1c0.1,0.4,0.3,0.5,0.3,0.8s-0.2,0.4-0.3,0.4c-0.2,0-0.3-0.1-0.5-0.3
			c-0.7-0.8-1.1-1.2-2-1.2h-0.5c-0.3,0-0.5,0.1-0.5,0.5v1.4c0,0.2,0.1,0.3,0.3,0.3h0.3c0.5,0,0.6-0.7,1-0.7c0.2,0,0.3,0.1,0.3,0.5
			c0,0.3,0,0.5,0,0.8c0,0.3,0,0.5,0,0.8c0,0.3-0.1,0.5-0.3,0.5c-0.4,0-0.5-0.7-1-0.7H19c-0.3,0-0.3,0.1-0.3,0.3v1.4
			c0,0.3,0.1,0.5,0.5,0.5h0.8c0.9,0,1.4-0.5,2.1-1.3c0.1-0.2,0.3-0.3,0.5-0.3C22.7,97.1,22.9,97.3,22.9,97.5z"/>
		<path class="st2" d="M30.9,92.8c0,0.5-0.6,0.3-1,1.2l-2,5.2c-0.2,0.5-0.3,0.6-1.2,0.6c-0.8,0-1-0.1-1.2-0.6l-2-5.2
			c-0.3-0.8-0.9-0.8-0.9-1.2c0-0.2,0.1-0.3,0.4-0.3c0.3,0,0.8,0,1.4,0c0.8,0,1.2,0,1.5,0c0.3,0,0.5,0.1,0.5,0.3
			c0,0.5-0.7,0.3-0.7,0.9c0,0.1,0.1,0.3,0.2,0.6l1.4,3.6l1.4-3.7c0.1-0.2,0.1-0.4,0.1-0.5c0-0.5-0.8-0.3-0.8-0.8
			c0-0.2,0.1-0.3,0.5-0.3c0.3,0,0.7,0,1,0c0.3,0,0.6,0,1,0C30.7,92.5,30.9,92.6,30.9,92.8z"/>
		<path class="st2" d="M37.8,97.5c0,0.3-0.1,0.4-0.3,0.8l-0.5,1.1c-0.2,0.4-0.3,0.5-0.6,0.5s-0.3-0.3-0.8-0.3h-3.1c-0.7,0-1,0-1.2,0
			c-0.3,0-0.4-0.1-0.4-0.3c0-0.5,0.5-0.3,0.5-1v-4.5c0-0.8-0.5-0.5-0.5-1c0-0.2,0.1-0.3,0.4-0.3c0.3,0,0.5,0,1.2,0h2.7
			c0.5,0,0.5-0.3,0.8-0.3c0.3,0,0.4,0.1,0.6,0.5l0.4,1c0.1,0.4,0.3,0.5,0.3,0.8s-0.2,0.4-0.3,0.4c-0.2,0-0.3-0.1-0.5-0.3
			c-0.7-0.8-1.1-1.2-2-1.2h-0.5c-0.3,0-0.5,0.1-0.5,0.5v1.4c0,0.2,0.1,0.3,0.3,0.3h0.3c0.5,0,0.6-0.7,1-0.7c0.2,0,0.3,0.1,0.3,0.5
			c0,0.3,0,0.5,0,0.8c0,0.3,0,0.5,0,0.8c0,0.3-0.1,0.5-0.3,0.5c-0.4,0-0.5-0.7-1-0.7h-0.3c-0.3,0-0.3,0.1-0.3,0.3v1.4
			c0,0.3,0.1,0.5,0.5,0.5h0.8c0.9,0,1.4-0.5,2.1-1.3c0.1-0.2,0.3-0.3,0.5-0.3S37.8,97.3,37.8,97.5z"/>
		<path class="st2" d="M45.5,92.8c0,0.5-0.6,0.3-0.6,1v5.4c0,0.3-0.3,0.5-0.5,0.5c-0.3,0-0.5-0.2-0.8-0.4L39.9,95v3.3
			c0,0.7,0.8,0.5,0.8,1c0,0.2-0.2,0.3-0.5,0.3c-0.3,0-0.5,0-0.8,0c-0.3,0-0.5,0-0.8,0c-0.3,0-0.4-0.1-0.4-0.3c0-0.5,0.6-0.3,0.6-1
			v-4.5c0-0.8-0.6-0.5-0.6-1c0-0.2,0.2-0.3,0.5-0.3c0.3,0,0.5,0,0.8,0c0.3,0,0.5,0,0.8,0c0.3,0,0.4,0.1,0.6,0.3l2.9,3.4v-2.4
			c0-0.7-0.8-0.5-0.8-1c0-0.2,0.2-0.3,0.5-0.3c0.3,0,0.5,0,0.8,0c0.3,0,0.5,0,0.8,0C45.3,92.5,45.5,92.7,45.5,92.8z"/>
		<path class="st2" d="M52.4,99.7h-2.5c-0.7,0-1,0-1.2,0c-0.3,0-0.4-0.1-0.4-0.3c0-0.5,0.5-0.3,0.5-1v-4.5c0-0.8-0.5-0.5-0.5-1
			c0-0.2,0.2-0.3,0.5-0.3c0.3,0,0.5,0,1.2,0c0.7,0,1,0,1.2,0c0.3,0,0.4,0.1,0.4,0.3c0,0.5-0.5,0.3-0.5,1v4.4c0,0.3,0.1,0.5,0.5,0.5
			h0.3c0.7,0,1.2-0.5,2-1.4c0.1-0.2,0.3-0.3,0.5-0.3c0.2,0,0.3,0.1,0.3,0.4c0,0.3-0.1,0.4-0.3,0.8l-0.5,1.1
			c-0.2,0.4-0.3,0.5-0.6,0.5C52.9,99.9,52.8,99.7,52.4,99.7z"/>
		<path class="st2" d="M62.2,99.4c0,0.1-0.1,0.3-0.3,0.3c-0.3,0-0.7,0-1.4,0s-1.1,0-1.4,0c-0.3,0-0.5-0.1-0.5-0.3
			c0-0.5,0.7-0.3,0.7-0.8c0-0.1-0.1-0.3-0.1-0.5L59,97.7c-0.1-0.2-0.1-0.3-0.4-0.3h-1.8c-0.3,0-0.3,0.1-0.4,0.3L56.3,98
			c-0.1,0.3-0.1,0.4-0.1,0.5c0,0.5,0.8,0.3,0.8,0.8c0,0.2-0.2,0.3-0.5,0.3s-0.7,0-1,0c-0.3,0-0.5,0-0.9,0c-0.2,0-0.3-0.1-0.3-0.3
			c0-0.5,0.6-0.3,0.9-1l1.4-3.8c0.2-0.5,0.4-1,0.5-1.4c0.2-0.5,0.4-0.7,1.2-0.7c0.8,0,1,0.1,1.2,0.7c0.1,0.4,0.3,1,0.5,1.4l1.4,3.8
			C61.7,99,62.2,99,62.2,99.4z M58.4,96.2l-0.8-2l-0.8,2c-0.1,0.1-0.1,0.3,0.2,0.3h1.1C58.5,96.5,58.4,96.4,58.4,96.2z"/>
		<path class="st2" d="M65.1,99.4l-0.5-1c-0.2-0.4-0.3-0.8-0.3-1c0-0.3,0.2-0.4,0.3-0.4c0.2,0,0.3,0.1,0.5,0.3
			c0.6,0.6,1.5,1.5,2.7,1.5c0.8,0,1.2-0.3,1.2-0.8c0-0.6-0.7-0.8-1.7-1.1c-1.2-0.3-2.8-0.9-2.8-2.5c0-1.2,1.1-2.1,2.4-2.1
			c0.8,0,1.2,0.3,1.4,0.3s0.3-0.3,0.5-0.3c0.3,0,0.4,0.3,0.7,0.8l0.3,0.5c0.3,0.5,0.5,0.8,0.5,1s-0.1,0.3-0.3,0.3
			c-0.2,0-0.3-0.1-0.5-0.3c-0.5-0.5-1.3-1.2-2.3-1.2c-0.5,0-0.8,0.2-0.8,0.6c0,0.5,0.5,0.6,1.4,0.9c1.5,0.4,3.1,1,3.1,2.6
			c0,1.5-1.2,2.4-2.9,2.4c-0.9,0-1.4-0.3-1.8-0.3c-0.3,0-0.3,0.3-0.6,0.3C65.3,99.9,65.2,99.7,65.1,99.4z"/>
		<path class="st2" d="M71.3,96.3c0-2.4,1.8-4,4-4c2.3,0,4,1.6,4,4c0,2.3-1.6,3.6-4,3.6C73.1,99.9,71.3,98.6,71.3,96.3z M76.9,96.1
			c0-1.4-0.5-2.9-1.6-2.9s-1.6,1.5-1.6,2.9c0,1.4,0.5,2.7,1.6,2.7C76.5,98.9,76.9,97.5,76.9,96.1z"/>
		<path class="st2" d="M86.9,97.6c0,1.4-1,2.1-3,2.1c-0.8,0-1.9-0.1-2.6-0.1s-1,0-1.2,0c-0.3,0-0.4-0.1-0.4-0.3c0-0.5,0.5-0.3,0.5-1
			v-4.5c0-0.8-0.5-0.5-0.5-1c0-0.2,0.1-0.3,0.4-0.3c0.3,0,0.5,0,1.2,0s1.4-0.1,2.3-0.1c1.7,0,2.9,0.7,2.9,1.9c0,0.5-0.3,1.1-1,1.4
			C86.3,96.1,86.9,96.8,86.9,97.6z M82.4,95.2c0,0.2,0.1,0.3,0.3,0.3h0.3c0.5,0,1-0.3,1-1c0-0.7-0.5-1.1-1.1-1.1H83
			c-0.3,0-0.5,0.1-0.5,0.5L82.4,95.2L82.4,95.2z M84.5,97.6c0-0.8-0.5-1.3-1.5-1.3h-0.3c-0.3,0-0.3,0.1-0.3,0.3V98
			c0,0.6,0.2,0.7,0.8,0.7h0.1C84,98.8,84.5,98.3,84.5,97.6z"/>
		<path class="st2" d="M95,99.4c0,0.1-0.1,0.3-0.3,0.3c-0.3,0-0.9,0-1.5,0c-0.6,0-1,0-1.3,0c-0.3,0-0.5-0.1-0.5-0.3
			c0-0.4,0.4-0.3,0.4-0.6c0-0.2-0.2-0.4-0.3-0.6l-0.5-0.6c-0.2-0.3-0.3-0.3-0.5-0.3h-0.3c-0.1,0-0.2,0.1-0.2,0.3v1
			c0,0.8,0.6,0.5,0.6,1c0,0.2-0.1,0.3-0.4,0.3c-0.3,0-0.5,0-1.2,0s-1,0-1.2,0c-0.3,0-0.4-0.1-0.4-0.3c0-0.5,0.5-0.3,0.5-1v-4.5
			c0-0.8-0.5-0.5-0.5-1c0-0.1,0.1-0.3,0.5-0.3c0.1,0,0.5,0,1,0c0.4,0,1.2-0.1,1.8-0.1c2.5,0,3.6,1,3.6,2.5c0,1-0.5,1.7-1.4,2
			l0.9,1.2C94.4,99,95,98.9,95,99.4z M92,94.9c0-1.1-0.6-1.5-1.4-1.5c-0.3,0-0.5,0.1-0.5,0.5V96c0,0.3,0.2,0.3,0.5,0.3
			C91.5,96.4,92,96,92,94.9z"/>
		<path class="st2" d="M102.1,97.5c0,0.3-0.1,0.4-0.3,0.8l-0.5,1.1c-0.2,0.4-0.3,0.5-0.6,0.5c-0.3,0-0.3-0.3-0.8-0.3h-3.1
			c-0.7,0-1,0-1.2,0c-0.3,0-0.4-0.1-0.4-0.3c0-0.5,0.5-0.3,0.5-1v-4.5c0-0.8-0.5-0.5-0.5-1c0-0.2,0.1-0.3,0.4-0.3s0.5,0,1.2,0h2.7
			c0.5,0,0.5-0.3,0.8-0.3c0.3,0,0.4,0.1,0.6,0.5l0.4,1c0.1,0.4,0.3,0.5,0.3,0.8s-0.2,0.4-0.3,0.4c-0.2,0-0.3-0.1-0.5-0.3
			c-0.7-0.8-1.1-1.2-2-1.2h-0.5c-0.3,0-0.5,0.1-0.5,0.5v1.4c0,0.2,0.1,0.3,0.3,0.3h0.3c0.5,0,0.6-0.7,1-0.7c0.2,0,0.3,0.1,0.3,0.5
			c0,0.3,0,0.5,0,0.8c0,0.3,0,0.5,0,0.8c0,0.3-0.1,0.5-0.3,0.5c-0.4,0-0.5-0.7-1-0.7h-0.3c-0.3,0-0.3,0.1-0.3,0.3v1.4
			c0,0.3,0.1,0.5,0.5,0.5h0.8c0.9,0,1.4-0.5,2.1-1.3c0.1-0.2,0.3-0.3,0.5-0.3C101.9,97.1,102.1,97.3,102.1,97.5z"/>
		<path class="st2" d="M104,99.7c-0.7,0-1,0-1.2,0c-0.3,0-0.4-0.1-0.4-0.3c0-0.5,0.5-0.3,0.5-1v-4.5c0-0.8-0.5-0.5-0.5-1
			c0-0.2,0.1-0.3,0.4-0.3c0.3,0,0.5,0,1.2,0c0.6,0,1.2-0.1,1.8-0.1c2.2,0,4.2,1.3,4.2,3.7c0,2-1.4,3.6-3.8,3.6
			C105.5,99.7,104.7,99.7,104,99.7z M105.8,98.8c1.2,0,1.8-0.8,1.8-2.6c0-1.8-0.8-2.7-1.9-2.7h-0.2c-0.3,0-0.5,0.1-0.5,0.5v4.4
			c0,0.3,0.1,0.5,0.5,0.5L105.8,98.8L105.8,98.8z"/>
		<path class="st2" d="M110.5,96.3c0-2.4,1.8-4,4-4c2.3,0,4,1.6,4,4c0,2.3-1.6,3.6-4,3.6C112.2,99.9,110.5,98.6,110.5,96.3z
			 M116.1,96.1c0-1.4-0.5-2.9-1.6-2.9s-1.6,1.5-1.6,2.9c0,1.4,0.5,2.7,1.6,2.7C115.7,98.9,116.1,97.5,116.1,96.1z"/>
		<path class="st2" d="M119.6,99.4l-0.5-1c-0.2-0.4-0.3-0.8-0.3-1c0-0.3,0.2-0.4,0.3-0.4c0.2,0,0.3,0.1,0.5,0.3
			c0.6,0.6,1.5,1.5,2.7,1.5c0.8,0,1.2-0.3,1.2-0.8c0-0.6-0.7-0.8-1.7-1.1c-1.2-0.3-2.8-0.9-2.8-2.5c0-1.2,1.1-2.1,2.4-2.1
			c0.8,0,1.2,0.3,1.4,0.3c0.3,0,0.3-0.3,0.5-0.3c0.3,0,0.4,0.3,0.7,0.8l0.3,0.5c0.3,0.5,0.5,0.8,0.5,1s-0.1,0.3-0.3,0.3
			c-0.2,0-0.3-0.1-0.5-0.3c-0.5-0.5-1.3-1.2-2.3-1.2c-0.5,0-0.8,0.2-0.8,0.6c0,0.5,0.5,0.6,1.4,0.9c1.5,0.4,3.1,1,3.1,2.6
			c0,1.5-1.2,2.4-2.9,2.4c-0.9,0-1.4-0.3-1.8-0.3s-0.3,0.3-0.6,0.3C119.9,99.9,119.8,99.7,119.6,99.4z"/>
		<path class="st2" d="M125.8,99.4c0-0.5,0.5-0.3,0.5-1v-4.5c0-0.8-0.5-0.5-0.5-1c0-0.2,0.2-0.3,0.5-0.3s0.5,0,1.2,0s1,0,1.2,0
			c0.3,0,0.4,0.1,0.4,0.3c0,0.5-0.5,0.3-0.5,1v4.5c0,0.8,0.5,0.5,0.5,1c0,0.2-0.1,0.3-0.4,0.3c-0.3,0-0.5,0-1.2,0s-1,0-1.2,0
			C126,99.7,125.8,99.5,125.8,99.4z"/>
		<path class="st2" d="M130.3,99.4l-0.5-1c-0.2-0.4-0.3-0.8-0.3-1c0-0.3,0.2-0.4,0.3-0.4c0.2,0,0.3,0.1,0.5,0.3
			c0.6,0.6,1.5,1.5,2.7,1.5c0.8,0,1.2-0.3,1.2-0.8c0-0.6-0.7-0.8-1.7-1.1c-1.2-0.3-2.8-0.9-2.8-2.5c0-1.2,1.1-2.1,2.4-2.1
			c0.8,0,1.2,0.3,1.4,0.3c0.3,0,0.3-0.3,0.5-0.3c0.3,0,0.4,0.3,0.7,0.8l0.3,0.5c0.3,0.5,0.5,0.8,0.5,1s-0.1,0.3-0.3,0.3
			c-0.2,0-0.3-0.1-0.5-0.3c-0.5-0.5-1.3-1.2-2.3-1.2c-0.5,0-0.8,0.2-0.8,0.6c0,0.5,0.5,0.6,1.4,0.9c1.5,0.4,3.1,1,3.1,2.6
			c0,1.5-1.2,2.4-2.9,2.4c-0.9,0-1.4-0.3-1.8-0.3s-0.3,0.3-0.6,0.3C130.6,99.9,130.5,99.7,130.3,99.4z"/>
	</g>
</g>
</svg>
