<?xml version="1.0" encoding="utf-8"?>
<!-- Generator: Adobe Illustrator 27.3.1, SVG Export Plug-In . SVG Version: 6.00 Build 0)  -->
<svg version="1.1" id="Layer_1" xmlns="http://www.w3.org/2000/svg" xmlns:xlink="http://www.w3.org/1999/xlink" x="0px" y="0px"
	 viewBox="0 0 138 100" style="enable-background:new 0 0 138 100;" xml:space="preserve">
<style type="text/css">
	.st0{display:none;fill:#00392C;}
	.st1{display:none;fill:#7BC1EB;}
	.st2{fill:#003726;}
	.st3{fill:#9BBCED;}
</style>
<path class="st0" d="M4.8,70.4c0.5,0,0.8,0.4,0.8,0.7c0,0.4-0.2,0.6-0.6,0.9c-1.5,1.4-2.5,2.4-2.5,3.9V77c0,0.8,0.3,1,1,1h3.1
	c0.4,0,0.6-0.1,0.6-0.7v-1.1c0-1.2-1.5-1.2-1.5-2.1c0-0.5,0.3-0.8,0.9-0.8c0.5,0,1.1,0.1,1.6,0.1s1.1-0.1,1.6-0.1
	c0.7,0,0.9,0.3,0.9,0.8c0,0.9-1.6,0.9-1.6,2.1v1.1c0,0.5,0.2,0.7,0.6,0.7h2.9c1.5,0,1.1-1.4,2-1.4c0.4,0,0.7,0.3,0.7,0.9
	c0,0.6-0.1,1.1-0.1,2.6s0.1,2,0.1,2.6c0,0.6-0.3,0.9-0.7,0.9c-0.9,0-0.5-1.2-2-1.2H3.2c-1.5,0-1.1,1.2-2,1.2c-0.4,0-0.7-0.3-0.7-0.9
	c0-0.5,0.1-1.1,0.1-2.5v-5.4c0-1-0.5-1.1-0.5-1.7c0-0.5,0.3-0.9,1.1-1.2l2-0.9C3.9,70.6,4.3,70.4,4.8,70.4L4.8,70.4z M15.7,54.6
	c0.3,0,0.6,0.3,0.5,0.8c-0.1,0.7-0.2,1.8-0.4,3.1c-0.1,1.2-0.2,2.1-0.2,2.7c-0.1,0.7-0.3,1-0.8,0.9c-0.8-0.1-0.4-0.9-1.2-1
	c-0.4,0-0.9,0.3-1.3,0.5L11,62.4c-0.5,0.3-0.8,0.6-0.8,1l0,0.5c0,0.3,0.1,0.4,0.4,0.4l1.9,0.2c1.5,0.2,1.2-1.1,2.1-1
	c0.4,0,0.7,0.3,0.6,1c-0.1,0.5-0.2,1.1-0.3,2.5c-0.1,1.4-0.1,1.9-0.2,2.5c-0.1,0.6-0.4,0.9-0.8,0.8c-0.9-0.1-0.4-1.2-1.9-1.4l-9.2-1
	c-1.5-0.2-1.2,1.1-2.1,1c-0.3,0-0.7-0.3-0.6-1.1c0-0.3,0.2-1.1,0.3-2c0.1-0.8,0.1-2.5,0.2-3.8c0.5-5,2.8-7.1,5.7-6.8
	c2,0.2,3.4,1.4,3.8,3.4l2.5-1.6C14.8,55.6,14.8,54.5,15.7,54.6L15.7,54.6z M6,59.8c-2.2-0.2-3.2,0.9-3.4,2.6
	c-0.1,0.6,0.1,1.1,0.8,1.2l4.4,0.5c0.6,0.1,0.8-0.4,0.8-1.1C8.8,61.1,8,60.1,6,59.8L6,59.8z M16.6,52.9c-0.9-0.3-0.1-1.3-1.5-1.8
	l-8.7-3.2c-1.4-0.5-1.4,0.7-2.3,0.4c-0.3-0.1-0.5-0.6-0.3-1.2c0.2-0.5,0.4-0.9,0.9-2.2c0.5-1.3,0.6-1.8,0.8-2.3
	c0.2-0.6,0.6-0.7,1-0.6c0.9,0.3,0.1,1.3,1.5,1.8l8.7,3.2c1.4,0.5,1.4-0.7,2.3-0.4c0.3,0.1,0.6,0.5,0.4,1.1c-0.2,0.5-0.4,1-0.9,2.3
	c-0.5,1.3-0.6,1.8-0.8,2.3C17.4,52.9,17,53,16.6,52.9L16.6,52.9z M23.7,31.1c0.4,0.3,0.6,0.6,1.1,1.4l1.3,2c0.5,0.7,0.5,1.2,0.3,1.6
	c-0.3,0.5-0.8,0.3-1.4,1.2l-3.3,5.3c-0.8,1.2-1,1.6-1.3,2.1c-0.3,0.5-0.8,0.6-1.1,0.4c-0.8-0.5,0.2-1.3-1.1-2.1l-7.8-5
	c-1.2-0.8-1.6,0.4-2.3-0.1c-0.3-0.2-0.5-0.6-0.1-1.1c0.3-0.4,0.6-0.8,1.4-2l2.9-4.6c0.5-0.8,0.2-1.2,0.5-1.7
	c0.3-0.4,0.7-0.6,1.6-0.4l2.2,0.3c0.8,0.1,1.3,0.2,1.7,0.4c0.4,0.3,0.5,0.7,0.3,1.1c-0.2,0.3-0.5,0.4-1,0.5c-2,0.4-3.4,0.6-4.3,2
	L12.7,33c-0.4,0.6-0.3,1,0.3,1.4l2.4,1.5c0.3,0.2,0.6,0.2,0.8-0.2l0.3-0.4c0.6-1-0.6-1.8-0.1-2.6c0.3-0.4,0.6-0.5,1.2-0.1
	c0.4,0.3,0.8,0.6,1.2,0.8c0.4,0.3,0.9,0.5,1.3,0.7c0.5,0.4,0.6,0.7,0.4,1.1c-0.5,0.7-1.7,0-2.3,1l-0.3,0.4c-0.3,0.4-0.2,0.6,0.1,0.9
	l2.5,1.6c0.5,0.4,1,0.3,1.4-0.3l0.8-1.3c0.9-1.5,0.7-2.9,0-5.1c-0.2-0.5-0.2-0.8,0-1.1C22.8,31,23.2,30.9,23.7,31.1L23.7,31.1z
	 M29.8,12.6c0.6,0.7-0.6,1.3,0.4,2.4l7.4,8.3c0.5,0.6,0.3,1.1-0.1,1.5c-0.6,0.5-1,0.4-1.7,0.4l-11.6-1.5l4.6,5.1
	c1,1.1,1.9-0.4,2.6,0.4c0.3,0.4,0.2,0.8-0.3,1.2c-0.5,0.4-0.9,0.7-1.3,1.1c-0.4,0.3-0.8,0.8-1.2,1.1c-0.5,0.4-0.9,0.3-1.1,0.1
	c-0.6-0.7,0.6-1.3-0.4-2.4l-6.2-6.9c-1-1.1-1.7,0-2.3-0.6c-0.3-0.3-0.2-0.8,0.3-1.2c0.4-0.4,0.9-0.7,1.2-1c0.5-0.4,0.8-0.8,1.1-1.1
	c0.4-0.3,0.8-0.4,1.4-0.4l9.1,1.2l-3.3-3.7c-1-1.1-1.9,0.4-2.6-0.4c-0.2-0.3-0.2-0.8,0.3-1.2c0.5-0.4,0.9-0.7,1.3-1.1
	c0.4-0.3,0.8-0.8,1.2-1.1C29.1,12.3,29.5,12.4,29.8,12.6z M42.7,21.5c-1.2,0.7-1.6,1-2.1,1.3c-0.5,0.3-1,0.1-1.1-0.2
	c-0.4-0.8,0.8-1.1,0-2.3L35,12.2c-0.7-1.3-1.6-0.4-2-1.2c-0.2-0.3-0.1-0.8,0.4-1.1c0.5-0.3,1-0.5,2.2-1.2c1.1-0.6,2.1-1.4,3.2-2
	c3.9-2.2,8.8-1.9,11.2,2.4c2,3.6,1,7.8-3.2,10.2C45.4,20.1,44,20.8,42.7,21.5L42.7,21.5z M45.1,18.1c2.2-1.2,2.5-3.3,0.7-6.5
	c-1.9-3.3-4.2-4-6.2-2.9l-0.4,0.2c-0.7,0.4-0.7,0.8-0.4,1.3l4.4,7.8c0.3,0.6,0.7,0.7,1.4,0.3L45.1,18.1L45.1,18.1z M54.6,15.7
	l-1.3-1.9c-0.5-0.8-0.9-1.4-1-1.8c-0.1-0.6,0.2-0.9,0.6-1c0.4-0.1,0.7,0.2,1,0.4c1.4,1.1,3.5,2.5,6,2.1c1.6-0.3,2.2-1.1,2.1-2.1
	c-0.2-1.3-1.7-1.4-3.8-1.6c-2.6-0.3-6-0.9-6.5-4c-0.4-2.5,1.4-4.6,4.1-5.1c1.6-0.3,2.5,0.1,3,0c0.5-0.1,0.4-0.8,1-0.9
	c0.7-0.1,1,0.4,1.7,1.2l0.7,0.8c0.9,1,1.2,1.6,1.3,2c0.1,0.4-0.2,0.7-0.5,0.7c-0.4,0.1-0.7-0.1-1.1-0.4c-1.1-0.8-3-1.9-5-1.6
	c-1.1,0.2-1.6,0.7-1.5,1.5c0.2,1,1.2,1.1,3.2,1.3c3.2,0.3,6.5,0.8,7.1,4.2c0.5,3-1.6,5.3-5.1,5.9c-1.8,0.3-3,0-3.6,0.1
	c-0.6,0.1-0.6,0.8-1.2,0.9C55.3,16.7,55,16.3,54.6,15.7L54.6,15.7z M87.7,6.7c-0.1,0.5-0.5,0.7-0.9,0.7C86.5,7.3,86.3,7,86,6.6
	c-1.1-1.8-1.8-2.9-3.3-3.2l-1-0.2c-0.7-0.1-1.1,0.1-1.2,0.7L79.9,7c-0.1,0.4,0,0.6,0.5,0.7l1,0.2c1.1,0.2,1.5-1.3,2.4-1.1
	c0.5,0.1,0.7,0.4,0.6,1.1c-0.1,0.5-0.3,1.1-0.3,1.5c-0.1,0.5-0.2,1.1-0.2,1.6c-0.1,0.6-0.5,0.9-0.9,0.8c-0.9-0.2-0.6-1.7-1.8-2
	l-1-0.2c-0.5-0.1-0.7,0-0.7,0.4l-0.5,2.8c-0.3,1.4,1.2,1.3,1,2.3c-0.1,0.4-0.4,0.7-1,0.5c-0.6-0.1-1.1-0.3-2.6-0.5
	c-1.4-0.3-2-0.3-2.5-0.4c-0.6-0.1-0.8-0.5-0.7-0.9c0.2-0.9,1.3-0.3,1.5-1.8l1.7-9.1c0.3-1.4-1-1.3-0.8-2.2c0.1-0.4,0.4-0.7,1-0.5
	c0.5,0.1,1,0.3,2.4,0.5l5.3,1c1,0.2,1.2-0.3,1.8-0.2c0.5,0.1,0.8,0.5,1,1.3L87.5,5C87.7,5.8,87.8,6.2,87.7,6.7L87.7,6.7z M87.4,10
	c2.1-4.5,6.8-5.8,10.8-3.8c4.2,2,6,6.4,4,10.8c-2,4.3-6.1,5.4-10.6,3.2C87.5,18.2,85.3,14.4,87.4,10z M98,14.6
	c1.2-2.5,1.6-5.7-0.5-6.7c-2.2-1-4.3,1.3-5.6,3.9c-1.2,2.5-1.4,5.4,0.7,6.4C94.8,19.4,96.7,17.3,98,14.6z M110.9,33.1
	c-0.2,0.3-0.6,0.3-0.9,0c-0.5-0.5-1.3-1.2-2.3-2.1c-0.9-0.8-1.6-1.3-2-1.7c-0.5-0.4-0.6-0.9-0.3-1.2c0.5-0.6,1,0.2,1.5-0.4
	c0.3-0.3,0.3-0.9,0.3-1.4l0.1-1.5c0-0.6,0-1-0.4-1.3l-0.4-0.3c-0.2-0.2-0.4-0.2-0.6,0.1l-1.3,1.5c-1,1.1,0.2,1.6-0.4,2.3
	c-0.2,0.3-0.7,0.4-1.1-0.1c-0.4-0.4-0.8-0.8-1.8-1.7c-1.1-0.9-1.5-1.2-1.9-1.6c-0.5-0.4-0.4-0.9-0.2-1.1c0.6-0.7,1.2,0.4,2.2-0.7
	l6.1-7c1-1.1-0.2-1.6,0.4-2.3c0.2-0.3,0.7-0.4,1.3,0.2c0.2,0.2,0.8,0.8,1.5,1.4c0.6,0.5,2,1.5,3,2.4c3.7,3.3,4.2,6.4,2.2,8.6
	c-1.3,1.5-3.1,1.9-4.9,1.2l-0.2,3C110.7,31.8,111.6,32.3,110.9,33.1L110.9,33.1z M112.3,22.1c1.5-1.7,1.1-3.1-0.2-4.3
	c-0.4-0.4-0.9-0.6-1.4,0l-2.9,3.3c-0.4,0.4-0.2,0.8,0.4,1.3C109.7,23.7,111,23.7,112.3,22.1z M117.5,45.3l-2.5-4.6
	c-0.7-1.2-1-1.7-1.2-2.2c-0.3-0.6-0.1-1,0.2-1.1c0.8-0.4,1,0.8,2.3,0.1l8.2-4.4c1.3-0.7,0.4-1.6,1.2-2c0.3-0.2,0.8,0,1.1,0.5
	c0.3,0.5,0.4,0.9,1.1,2.1c0.7,1.2,1,1.7,1.2,2.2c0.3,0.6,0.1,1-0.2,1.1c-0.8,0.4-1-0.8-2.3-0.1l-8,4.3c-0.6,0.3-0.7,0.7-0.4,1.4
	l0.4,0.7c0.6,1.2,2.2,1.8,4.4,2.3c0.5,0.1,0.8,0.2,1,0.6c0.2,0.3,0.1,0.8-0.4,1.1c-0.5,0.2-0.9,0.2-1.8,0.3l-2.4,0.2
	c-0.9,0-1.3-0.1-1.5-0.6C117.5,46.5,117.9,46.1,117.5,45.3L117.5,45.3z M119.9,49.5c0.9-0.3,0.9,1,2.3,0.6l8.9-2.6
	c1.4-0.4,0.7-1.4,1.6-1.7c0.3-0.1,0.8,0.2,1,0.8c0.2,0.5,0.2,0.9,0.6,2.3c0.4,1.4,0.6,1.8,0.7,2.4c0.2,0.6-0.1,1-0.4,1.1
	c-0.9,0.3-0.9-1-2.3-0.6l-8.9,2.6c-1.4,0.4-0.7,1.4-1.6,1.7c-0.3,0.1-0.8-0.1-0.9-0.7c-0.2-0.5-0.2-1-0.6-2.4
	c-0.4-1.4-0.6-1.8-0.7-2.4C119.3,50,119.5,49.6,119.9,49.5z M133.6,69c-0.5,0.1-0.9-0.3-0.9-0.6c0-0.4,0.2-0.6,0.5-1
	c1.3-1.6,2.2-2.7,2-4.2l-0.1-1.1c-0.1-0.7-0.4-1-1.1-0.9l-3.1,0.4c-0.4,0-0.5,0.2-0.5,0.7l0.1,1.1c0.1,1.2,1.7,1,1.8,1.9
	c0.1,0.5-0.2,0.8-0.8,0.9c-0.5,0.1-1.1,0.1-1.6,0.1c-0.5,0.1-1.1,0.2-1.6,0.3c-0.6,0.1-1-0.2-1-0.6c-0.1-0.9,1.5-1.1,1.3-2.3
	l-0.1-1.1c-0.1-0.5-0.2-0.6-0.7-0.6l-2.9,0.4c-1.5,0.2-0.9,1.6-1.8,1.7c-0.4,0-0.7-0.2-0.8-0.8c-0.1-0.6-0.1-1.1-0.3-2.6
	c-0.2-1.4-0.3-2-0.4-2.5c-0.1-0.6,0.2-0.9,0.6-1c0.9-0.1,0.7,1.1,2.1,0.9l9.2-1.2c1.5-0.2,0.9-1.3,1.9-1.4c0.4,0,0.7,0.2,0.8,0.8
	c0.1,0.5,0.1,1.1,0.3,2.5l0.7,5.4c0.1,1,0.7,1,0.7,1.7c0.1,0.5-0.2,0.9-0.9,1.3l-1.9,1.1C134.4,68.7,134.1,68.9,133.6,69L133.6,69z
	 M127,84c-0.5,0-0.9-0.2-1.7-0.5l-2.2-1c-0.8-0.4-1.1-0.7-1.1-1.2c0-0.6,0.5-0.7,0.5-1.7v-6.2c0-1.4-0.1-1.9-0.1-2.5
	c0-0.6,0.3-0.9,0.7-0.9c0.9,0,0.5,1.2,2,1.2h9.2c1.5,0,1.1-1.2,2-1.2c0.4,0,0.7,0.3,0.7,0.9c0,0.5-0.1,1-0.1,2.5v5.5
	c0,1,0.5,1.1,0.5,1.7c0,0.5-0.3,0.9-1.1,1.2l-2,0.9c-0.8,0.4-1.1,0.5-1.7,0.5c-0.5,0-0.8-0.4-0.8-0.7s0.2-0.6,0.6-0.9
	c1.5-1.4,2.5-2.3,2.5-4v-1c0-0.8-0.3-1-1-1h-2.8c-0.4,0-0.6,0.1-0.6,0.7v0.5c0,1.2,1.4,1.2,1.4,2.1c0,0.5-0.3,0.8-0.9,0.8
	c-0.5,0-1-0.1-1.5-0.1c-0.5,0-1,0.1-1.5,0.1c-0.7,0-0.9-0.3-0.9-0.8c0-0.9,1.4-0.9,1.4-2.1v-0.5c0-0.5-0.2-0.7-0.6-0.7h-3
	c-0.7,0-1,0.3-1,1V78c0,1.8,1,2.8,2.7,4.3c0.4,0.3,0.6,0.6,0.6,0.9C127.8,83.6,127.5,84,127,84L127,84z M8.2,94.4
	c0,1.5-0.9,2.8-4,2.8c-0.7,0-0.8-0.1-0.8,0.3v0.8c0,0.8,0.8,0.5,0.8,1.1c0,0.2-0.2,0.4-0.5,0.4c-0.3,0-0.7,0-1.6,0
	c-0.8,0-1.1,0-1.4,0c-0.4,0-0.5-0.2-0.5-0.4c0-0.5,0.7-0.3,0.7-1.1V93c0-0.8-0.7-0.6-0.7-1.1c0-0.2,0.2-0.4,0.6-0.4
	c0.3,0,0.5,0,1.3,0c0.5,0,1.2-0.1,1.9-0.1C6.8,91.4,8.2,92.6,8.2,94.4L8.2,94.4z M5.5,94.4c0-1.2-0.6-1.8-1.5-1.8
	c-0.7,0-0.7,0.3-0.7,0.5v2.6c0,0.4,0.2,0.5,0.7,0.5C5,96.1,5.5,95.5,5.5,94.4L5.5,94.4z M17.3,99.4c0,0.2-0.2,0.3-0.4,0.3
	c-0.4,0-1,0-1.7,0c-0.7,0-1.2,0-1.5,0c-0.4,0-0.6-0.1-0.6-0.4c0-0.5,0.5-0.3,0.5-0.7c0-0.2-0.2-0.5-0.4-0.7l-0.5-0.7
	c-0.2-0.3-0.4-0.4-0.6-0.4h-0.3c-0.2,0-0.2,0.1-0.2,0.3v1.1c0,0.8,0.7,0.6,0.7,1.1c0,0.2-0.2,0.4-0.5,0.4c-0.3,0-0.6,0-1.4,0
	c-0.8,0-1.1,0-1.4,0c-0.4,0-0.5-0.2-0.5-0.4c0-0.5,0.7-0.3,0.7-1.1V93c0-0.8-0.7-0.6-0.7-1.1c0-0.2,0.1-0.4,0.6-0.4
	c0.2,0,0.7,0,1.1,0c0.5,0,1.4-0.1,2.1-0.1c2.8,0,4.1,1.1,4.1,2.8c0,1.1-0.6,2-1.6,2.3l1,1.3C16.7,98.9,17.3,98.8,17.3,99.4
	L17.3,99.4z M13.9,94.3c0-1.2-0.7-1.7-1.6-1.7c-0.3,0-0.6,0.1-0.6,0.5v2.5c0,0.3,0.2,0.4,0.6,0.4C13.4,95.9,13.9,95.4,13.9,94.3
	L13.9,94.3z M26,97.2c0,0.3-0.1,0.5-0.3,0.9l-0.6,1.2c-0.2,0.4-0.4,0.6-0.7,0.6c-0.3,0-0.4-0.3-1-0.3H20c-0.8,0-1.1,0-1.4,0
	c-0.4,0-0.5-0.2-0.5-0.4c0-0.5,0.7-0.3,0.7-1.1V93c0-0.8-0.7-0.6-0.7-1.1c0-0.2,0.2-0.4,0.5-0.4c0.3,0,0.6,0,1.4,0h3
	c0.6,0,0.6-0.3,1-0.3c0.3,0,0.5,0.2,0.7,0.6l0.5,1.1c0.2,0.4,0.3,0.6,0.3,0.9c0,0.3-0.2,0.5-0.4,0.5s-0.3-0.1-0.5-0.3
	c-0.8-0.8-1.3-1.4-2.2-1.4h-0.5c-0.4,0-0.6,0.2-0.6,0.5v1.6c0,0.2,0.1,0.3,0.4,0.3h0.3c0.7,0,0.7-0.8,1.2-0.8c0.3,0,0.4,0.2,0.4,0.5
	c0,0.3,0,0.5,0,0.8c0,0.3,0,0.5,0,0.8c0,0.4-0.2,0.5-0.4,0.5c-0.5,0-0.5-0.8-1.2-0.8h-0.3c-0.3,0-0.4,0.1-0.4,0.3v1.7
	c0,0.4,0.2,0.5,0.6,0.5h0.9c1,0,1.6-0.6,2.4-1.5c0.2-0.2,0.3-0.3,0.5-0.3C25.7,96.8,26,97,26,97.2L26,97.2z M35.1,91.8
	c0,0.6-0.7,0.4-1.1,1.4l-2.3,5.9c-0.2,0.5-0.4,0.7-1.4,0.7c-0.9,0-1.2-0.2-1.4-0.7l-2.3-5.9c-0.4-0.9-1-0.8-1-1.4
	c0-0.2,0.2-0.4,0.4-0.4c0.4,0,0.8,0,1.6,0c0.8,0,1.3,0,1.7,0c0.4,0,0.6,0.2,0.6,0.4c0,0.6-0.8,0.4-0.8,1c0,0.2,0.1,0.4,0.2,0.7
	l1.5,4l1.6-4.2c0.1-0.3,0.2-0.5,0.2-0.6c0-0.6-0.9-0.4-0.9-1c0-0.3,0.2-0.4,0.6-0.4c0.4,0,0.8,0,1.1,0s0.7,0,1.1,0
	C35,91.5,35.1,91.6,35.1,91.8L35.1,91.8z M43.7,97.2c0,0.3-0.1,0.5-0.3,0.9l-0.6,1.2c-0.2,0.4-0.4,0.6-0.7,0.6c-0.3,0-0.4-0.3-1-0.3
	h-3.5c-0.8,0-1.1,0-1.4,0c-0.4,0-0.5-0.2-0.5-0.4c0-0.5,0.7-0.3,0.7-1.1V93c0-0.8-0.7-0.6-0.7-1.1c0-0.2,0.2-0.4,0.5-0.4
	c0.3,0,0.6,0,1.4,0h3c0.6,0,0.6-0.3,1-0.3c0.3,0,0.5,0.2,0.7,0.6l0.5,1.1c0.2,0.4,0.3,0.6,0.3,0.9c0,0.3-0.2,0.5-0.4,0.5
	s-0.3-0.1-0.5-0.3c-0.8-0.8-1.3-1.4-2.2-1.4h-0.5c-0.4,0-0.6,0.2-0.6,0.5v1.6c0,0.2,0.1,0.3,0.4,0.3h0.3c0.7,0,0.7-0.8,1.2-0.8
	c0.3,0,0.4,0.2,0.4,0.5c0,0.3,0,0.5,0,0.8c0,0.3,0,0.5,0,0.8c0,0.4-0.2,0.5-0.4,0.5c-0.5,0-0.5-0.8-1.2-0.8h-0.3
	c-0.3,0-0.4,0.1-0.4,0.3v1.7c0,0.4,0.2,0.5,0.6,0.5h0.9c1,0,1.6-0.6,2.4-1.5c0.2-0.2,0.3-0.3,0.5-0.3C43.4,96.8,43.7,97,43.7,97.2
	L43.7,97.2z M52.2,91.9c0,0.5-0.7,0.3-0.7,1.1v6.2c0,0.4-0.3,0.6-0.6,0.6c-0.4,0-0.6-0.2-0.9-0.5l-4.3-5v3.8c0,0.8,0.9,0.5,0.9,1.1
	c0,0.3-0.2,0.4-0.6,0.4c-0.3,0-0.7,0-1,0c-0.3,0-0.6,0-0.9,0c-0.4,0-0.5-0.2-0.5-0.4c0-0.5,0.7-0.3,0.7-1.1V93
	c0-0.8-0.7-0.6-0.7-1.1c0-0.2,0.2-0.4,0.6-0.4c0.3,0,0.6,0,0.9,0c0.3,0,0.6,0,0.9,0c0.3,0,0.5,0.1,0.7,0.4l3.4,3.9V93
	c0-0.8-0.9-0.5-0.9-1.1c0-0.2,0.2-0.4,0.6-0.4c0.3,0,0.7,0,1,0c0.3,0,0.6,0,0.9,0C52.1,91.5,52.2,91.7,52.2,91.9z M54.9,99.3
	c0-0.6,0.8-0.3,0.8-1.1v-5c0-0.4-0.2-0.6-0.5-0.6h-0.1c-0.6,0-1,0.6-1.8,1.4c-0.2,0.2-0.3,0.3-0.5,0.3c-0.2,0-0.4-0.2-0.4-0.5
	c0-0.3,0.1-0.5,0.3-0.9l0.4-1.1c0.2-0.4,0.4-0.6,0.6-0.6c0.3,0,0.4,0.3,1,0.3h4.5c0.6,0,0.6-0.3,1-0.3c0.3,0,0.5,0.2,0.6,0.6
	l0.4,1.1c0.2,0.4,0.3,0.6,0.3,0.9c0,0.3-0.2,0.5-0.4,0.5c-0.2,0-0.3-0.1-0.5-0.3c-0.8-0.8-1.2-1.4-1.8-1.4h-0.1
	c-0.4,0-0.5,0.2-0.5,0.6v5c0,0.8,0.8,0.5,0.8,1.1c0,0.2-0.2,0.4-0.5,0.4c-0.3,0-0.7,0-1.6,0c-0.9,0-1.2,0-1.6,0
	C55,99.7,54.9,99.5,54.9,99.3L54.9,99.3z M65.5,95.8c0-2.8,2.1-4.6,4.6-4.6s4.6,1.8,4.6,4.5c0,2.7-1.8,4.2-4.6,4.2
	C67.5,100,65.5,98.5,65.5,95.8L65.5,95.8z M72,95.6c0-1.5-0.5-3.3-1.9-3.3c-1.4,0-1.9,1.7-1.9,3.3c0,1.6,0.6,3.1,1.9,3.1
	C71.5,98.8,72,97.3,72,95.6L72,95.6z M83.8,91.8c0,0.6-0.7,0.4-1.1,1.4l-2.3,5.9c-0.2,0.5-0.4,0.7-1.4,0.7c-0.9,0-1.2-0.2-1.4-0.7
	l-2.3-5.9c-0.4-0.9-1-0.8-1-1.4c0-0.2,0.2-0.4,0.4-0.4c0.4,0,0.8,0,1.6,0c0.8,0,1.3,0,1.7,0c0.4,0,0.6,0.2,0.6,0.4
	c0,0.6-0.8,0.4-0.8,1c0,0.2,0.1,0.4,0.2,0.7l1.5,4l1.6-4.2c0.1-0.3,0.2-0.5,0.2-0.6c0-0.6-0.9-0.4-0.9-1c0-0.3,0.2-0.4,0.6-0.4
	c0.4,0,0.8,0,1.1,0c0.3,0,0.7,0,1.1,0C83.7,91.5,83.8,91.6,83.8,91.8L83.8,91.8z M92.4,97.2c0,0.3-0.1,0.5-0.3,0.9l-0.6,1.2
	c-0.2,0.4-0.4,0.6-0.7,0.6c-0.3,0-0.4-0.3-1-0.3h-3.5c-0.8,0-1.1,0-1.4,0c-0.4,0-0.5-0.2-0.5-0.4c0-0.5,0.7-0.3,0.7-1.1V93
	c0-0.8-0.7-0.6-0.7-1.1c0-0.2,0.2-0.4,0.5-0.4c0.3,0,0.6,0,1.4,0h3c0.6,0,0.6-0.3,1-0.3c0.3,0,0.5,0.2,0.7,0.6l0.5,1.1
	c0.2,0.4,0.3,0.6,0.3,0.9c0,0.3-0.2,0.5-0.4,0.5c-0.2,0-0.3-0.1-0.5-0.3c-0.8-0.8-1.3-1.4-2.2-1.4h-0.5c-0.4,0-0.6,0.2-0.6,0.5v1.6
	c0,0.2,0.1,0.3,0.4,0.3h0.3c0.7,0,0.7-0.8,1.2-0.8c0.3,0,0.4,0.2,0.4,0.5c0,0.3,0,0.5,0,0.8c0,0.3,0,0.5,0,0.8
	c0,0.4-0.2,0.5-0.4,0.5c-0.5,0-0.5-0.8-1.2-0.8h-0.3c-0.3,0-0.4,0.1-0.4,0.3v1.7c0,0.4,0.2,0.5,0.6,0.5H89c1,0,1.6-0.6,2.4-1.5
	c0.2-0.2,0.3-0.3,0.5-0.3C92.1,96.8,92.3,97,92.4,97.2L92.4,97.2z M101.6,99.4c0,0.2-0.2,0.3-0.4,0.3c-0.4,0-1,0-1.7,0
	c-0.7,0-1.2,0-1.5,0c-0.4,0-0.6-0.1-0.6-0.4c0-0.5,0.5-0.3,0.5-0.7c0-0.2-0.2-0.5-0.4-0.7L97,97.2c-0.2-0.3-0.4-0.4-0.6-0.4h-0.3
	c-0.2,0-0.2,0.1-0.2,0.3v1.1c0,0.8,0.7,0.6,0.7,1.1c0,0.2-0.2,0.4-0.5,0.4c-0.3,0-0.6,0-1.4,0c-0.8,0-1.1,0-1.4,0
	c-0.4,0-0.5-0.2-0.5-0.4c0-0.5,0.7-0.3,0.7-1.1V93c0-0.8-0.7-0.6-0.7-1.1c0-0.2,0.1-0.4,0.6-0.4c0.2,0,0.7,0,1.1,0
	c0.5,0,1.4-0.1,2.1-0.1c2.8,0,4.1,1.1,4.1,2.8c0,1.1-0.6,2-1.6,2.3l1,1.3C101,98.9,101.6,98.8,101.6,99.4L101.6,99.4z M98.1,94.3
	c0-1.2-0.7-1.7-1.6-1.7c-0.3,0-0.6,0.1-0.6,0.5v2.5c0,0.3,0.2,0.4,0.6,0.4C97.6,95.9,98.1,95.4,98.1,94.3L98.1,94.3z M104.2,99.7
	c-0.8,0-1.1,0-1.4,0c-0.4,0-0.5-0.2-0.5-0.4c0-0.5,0.7-0.3,0.7-1.1V93c0-0.8-0.7-0.6-0.7-1.1c0-0.2,0.2-0.4,0.5-0.4
	c0.3,0,0.6,0,1.4,0c0.7,0,1.4-0.1,2.1-0.1c2.5,0,4.8,1.5,4.8,4.2c0,2.3-1.6,4.1-4.4,4.1C105.9,99.8,105.1,99.7,104.2,99.7z
	 M106.3,98.7c1.4,0,2.1-0.9,2.1-3c0-2.1-1-3.1-2.2-3.1H106c-0.4,0-0.6,0.2-0.6,0.5v5c0,0.4,0.2,0.5,0.6,0.5H106.3z M111.9,95.8
	c0-2.8,2.1-4.6,4.6-4.6c2.5,0,4.6,1.8,4.6,4.5c0,2.7-1.8,4.2-4.6,4.2C113.9,100,111.9,98.5,111.9,95.8L111.9,95.8z M118.4,95.6
	c0-1.5-0.5-3.3-1.9-3.3s-1.9,1.7-1.9,3.3c0,1.6,0.6,3.1,1.9,3.1C117.9,98.8,118.4,97.3,118.4,95.6L118.4,95.6z M122.5,99.4l-0.5-1.1
	c-0.2-0.5-0.4-0.8-0.4-1.1c0-0.3,0.2-0.5,0.4-0.5c0.2,0,0.4,0.2,0.5,0.3c0.7,0.7,1.7,1.7,3.1,1.7c0.9,0,1.3-0.4,1.3-0.9
	c0-0.7-0.8-0.9-1.9-1.3c-1.4-0.4-3.2-1-3.2-2.8c0-1.4,1.2-2.4,2.7-2.4c0.9,0,1.4,0.3,1.7,0.3s0.3-0.4,0.6-0.4c0.4,0,0.5,0.3,0.8,0.8
	l0.3,0.5c0.4,0.6,0.5,1,0.5,1.2c0,0.2-0.2,0.4-0.3,0.4c-0.2,0-0.4-0.1-0.6-0.3c-0.5-0.6-1.5-1.3-2.6-1.3c-0.6,0-1,0.3-1,0.7
	c0,0.5,0.6,0.7,1.6,1c1.8,0.5,3.5,1.1,3.5,3c0,1.7-1.4,2.8-3.4,2.8c-1,0-1.7-0.3-2-0.3c-0.4,0-0.4,0.4-0.7,0.4
	C122.8,100,122.6,99.7,122.5,99.4z M137.3,97.2c0,0.3-0.1,0.5-0.3,0.9l-0.6,1.2c-0.2,0.4-0.4,0.6-0.7,0.6c-0.3,0-0.4-0.3-1-0.3h-3.5
	c-0.8,0-1.1,0-1.4,0c-0.4,0-0.5-0.2-0.5-0.4c0-0.5,0.7-0.3,0.7-1.1V93c0-0.8-0.7-0.6-0.7-1.1c0-0.2,0.2-0.4,0.5-0.4
	c0.3,0,0.6,0,1.4,0h3c0.6,0,0.6-0.3,1-0.3c0.3,0,0.5,0.2,0.7,0.6l0.5,1.1c0.2,0.4,0.3,0.6,0.3,0.9c0,0.3-0.2,0.5-0.4,0.5
	c-0.2,0-0.3-0.1-0.5-0.3c-0.8-0.8-1.3-1.4-2.2-1.4h-0.5c-0.4,0-0.6,0.2-0.6,0.5v1.6c0,0.2,0.1,0.3,0.4,0.3h0.3
	c0.7,0,0.7-0.8,1.2-0.8c0.3,0,0.4,0.2,0.4,0.5c0,0.3,0,0.5,0,0.8c0,0.3,0,0.5,0,0.8c0,0.4-0.2,0.5-0.4,0.5c-0.5,0-0.5-0.8-1.2-0.8
	h-0.3c-0.3,0-0.4,0.1-0.4,0.3v1.7c0,0.4,0.2,0.5,0.6,0.5h0.9c1,0,1.6-0.6,2.4-1.5c0.2-0.2,0.3-0.3,0.5-0.3
	C137.1,96.8,137.3,97,137.3,97.2L137.3,97.2z M61,51.3c-1.3,0-1.6,1.4-1.6,2.6c0,0.3,0.4,0.4,0.6,0.5c1,0.2,2.4,0,2.5-0.3
	c0.1-0.4,0-1.5-0.5-2.2C61.8,51.5,61.5,51.3,61,51.3z M93.5,48c-1,0-1.8,0.6-2.1,1.6c-0.5,1.5-1.7,8.3-5.3,10.8
	c-3.8,2.6-10.3,3-14.3,3c-2,0-3.3-0.1-3.5-0.1c-0.1,0-0.2-0.1-0.2-0.2c0-0.1,0.1-0.2,0.2-0.2c0,0,3,0.2,6.7,0
	c3.3-0.2,7.9-0.9,10.8-2.9c3.4-2.3,5.3-9.3,5.4-13.6c0.1-2.5-0.7-3.5-2.1-3.6c-1.7-0.1-2.3,1.4-2.4,2.2c-0.3,2.4-1.3,7.8-3.8,10.2
	c-2.5,2.4-6.4,3.3-9.1,3.6c-1.3,0.2-2.6,0.2-3.5,0.2c-1.2,0-1.9-0.1-1.9-0.1c-0.1,0-0.2-0.1-0.2-0.2c0-0.1,0.1-0.2,0.2-0.2
	c0.1,0,9.5,0.8,14.2-3.6c3-2.9,3.9-11.5,3.8-12.2c-0.2-1.7-1.1-2.9-2.7-2.9c-1.7,0-2.1,1.6-2.4,3.1c-0.1,0.5-0.2,2.3-0.4,3.7
	c-0.4,2.4-1.2,4.3-2.5,5.6c-1.2,1.2-3.4,2.1-6.6,2.5c-1.9,0.3-3.6,0.3-4.2,0.3c-0.1,0-0.2,0-0.2,0c-0.1,0-0.2-0.1-0.2-0.2
	c0-0.1,0.1-0.2,0.2-0.2c0.1,0,7.9,0.1,10.6-2.7c1.9-2,2.6-5.2,2.6-7.7c0-0.5-0.2-1.7-1.6-1.8c-1.4,0-1.7,0.9-2,2.1
	c-0.2,0.7-0.5,4.1-2.7,5.4c-2.5,1.5-6.2,1.5-10.7,2c0.3,1,0.4,2,0.4,2.8c0.2,2.4-0.2,7.7-0.2,7.7c0,0.1-0.1,0.2-0.2,0.2
	c-0.1,0-0.2-0.1-0.2-0.2c0-0.1,0.3-5.2,0.2-7.7c-0.1-0.8-0.3-3.4-1.2-4.3c-0.4-0.4-0.8-0.6-1.3-0.6c-1.5,0-2.4,0.8-2.7,2.4
	c-0.1,0.3-0.3,1.8-0.4,2.6c-0.1,0.5-0.2,1.1-0.2,1.6c-0.6,3.6-1.4,9.1-1.4,9.2c0,0.1-0.1,0.2-0.2,0.2c0,0,0,0,0,0
	c-0.1,0-0.2-0.1-0.2-0.2c0-0.1,0.8-5.7,1.4-9.2c0.1-0.5,0.2-1.1,0.2-1.6c0.1-0.7,0.2-1.4,0.3-2.1l-0.5,0.1c-4.8,0.7-9.9,1.6-12.9,5
	c-3.7,4.2-4,8-4.6,11.8c-0.2,1.6-0.6,9.2-0.2,11.2c0.5,2.3,4.2,2.9,9.4,2.9c4.4,0,8.5-0.7,9.5-2.3c0.2-0.4,0.3-0.8,0.3-1.2
	c0-0.5,0-1.4-0.1-2.4c-0.1-2.7,0.6-5.2,2.8-7.1c2.9-2.6,12.3-2,15.9-2.2c6.5-0.4,11.4-2.5,14.6-5.7c2.8-2.9,3.8-8.7,3.8-11.1
	C96.1,50.1,95.7,48.1,93.5,48L93.5,48z M63,54.1c-0.1,0.4-1.1,0.6-2,0.6c-0.2,0-0.5,0-0.7,0c-1-0.2-1.2-0.6-1.2-0.9
	c0-1.9,0.7-2.9,2-2.9h0c0.5,0,1,0.2,1.4,0.7C63,52.4,63.1,53.6,63,54.1L63,54.1z"/>
<path class="st1" d="M71,32.6c-0.2-0.4-0.5-0.9-1.3-1c-0.6,0-2.5-0.2-4.2-0.2c-0.1-1.7-0.4-8.8-0.8-9.4c-0.4-0.6-1.1-0.8-1.7-0.8
	c-0.9,0-1.3,0.4-1.6,0.9c-0.2,0.4-0.6,7-0.7,9.3c-2,0.1-4,0.3-4.3,0.4c-0.4,0.1-0.6,0.3-0.7,0.8s-0.6,9.7-0.3,10.1
	c0.3,0.4,2.1,0.4,2.7,0.3c0.5-0.2,0.4-5.8,1.5-6.7c0.6-0.5,1.4-0.9,2.3-1.1c0,1.4-0.1,4.7,0,5c0.2,0.4,0.9,0.7,1.7,0.7
	c0.8,0,1.3-0.4,1.3-0.6c0-0.2,0-3.7,0-5.1c1.2,0.2,1.9,0.6,2.6,1.3c0.8,0.8,0.4,6,1.1,6.5c0.7,0.4,2.5,0.3,3-0.1
	C72.2,42.3,71.2,32.9,71,32.6L71,32.6z M65.5,32.4c0,0-0.7,0.8-2.3,0.8c-1.7,0-2.4-0.8-2.4-0.8c-0.1-0.1-0.1-0.2,0-0.3
	c0.1-0.1,0.2-0.1,0.3,0c0,0,0.7,0.7,2.1,0.7s2-0.7,2-0.7c0.1-0.1,0.2-0.1,0.3,0C65.6,32.1,65.6,32.3,65.5,32.4L65.5,32.4z"/>
<g>
	<path class="st2" d="M4.7,70.3c0.5,0,0.8,0.4,0.8,0.7c0,0.4-0.2,0.6-0.6,0.9c-1.5,1.4-2.6,2.4-2.6,3.9v1.1c0,0.8,0.3,1,1,1h3.1
		c0.4,0,0.6-0.1,0.6-0.7v-1.1c0-1.2-1.6-1.2-1.6-2.1c0-0.5,0.3-0.8,0.9-0.8c0.5,0,1.1,0.1,1.6,0.1s1.1-0.1,1.6-0.1
		c0.7,0,0.9,0.3,0.9,0.8c0,0.9-1.6,0.9-1.6,2.1v1.1c0.1,0.6,0.3,0.7,0.7,0.7h2.9c1.5,0,1.1-1.4,2-1.4c0.4,0,0.7,0.3,0.7,0.9
		c0,0.6-0.1,1.1-0.1,2.6c0,1.4,0.1,2,0.1,2.6c0,0.6-0.3,0.9-0.7,0.9c-0.9,0-0.6-1.2-2-1.2H3.1c-1.5,0-1.1,1.2-2,1.2
		c-0.4,0-0.7-0.3-0.7-0.9c0-0.6,0.1-1.1,0.1-2.5v-5.4c0-1-0.5-1.1-0.5-1.7c0-0.5,0.3-0.9,1.1-1.2l2-0.9C3.8,70.5,4.2,70.3,4.7,70.3z
		 M15.7,54.6c0.3,0,0.6,0.3,0.5,0.8c-0.1,0.7-0.2,1.8-0.4,3.1c-0.1,1.2-0.2,2.1-0.2,2.7c-0.1,0.6-0.4,1-0.8,0.9
		c-0.8-0.1-0.4-0.9-1.2-1c-0.4,0-0.9,0.3-1.3,0.5L11,62.4c-0.5,0.3-0.8,0.6-0.8,1l-0.1,0.5c0,0.3,0.1,0.4,0.4,0.4l1.9,0.2
		c1.5,0.2,1.2-1.1,2.1-1c0.4,0,0.7,0.3,0.6,1c0.1,0.5,0,1.1-0.1,2.5s-0.1,1.9-0.2,2.5c-0.1,0.6-0.4,0.9-0.8,0.8
		c-0.9-0.1-0.4-1.2-1.9-1.4l-9.2-1c-1.5-0.2-1.2,1.1-2.1,1c-0.3,0-0.7-0.3-0.6-1.1c0-0.3,0.2-1.2,0.3-2C0.7,65,0.7,63.3,0.7,62
		c0.5-5,2.8-7.1,5.7-6.8c2,0.2,3.4,1.4,3.8,3.4l2.5-1.6C14.8,55.6,14.7,54.5,15.7,54.6z M5.9,59.8c-2.2-0.2-3.2,0.9-3.4,2.6
		c-0.1,0.6,0.1,1.1,0.8,1.2L7.7,64c0.6,0.1,0.8-0.4,0.8-1.1C8.8,61,8,60,5.9,59.8z M16.6,52.9c-0.9-0.3-0.1-1.3-1.5-1.8l-8.7-3.2
		C5,47.4,5,48.6,4.1,48.3c-0.3-0.1-0.5-0.6-0.3-1.2c0.2-0.5,0.4-0.9,0.9-2.2s0.6-1.8,0.8-2.3c0.2-0.6,0.6-0.7,1-0.6
		c0.9,0.3,0.1,1.3,1.5,1.8l8.7,3.2c1.4,0.5,1.4-0.7,2.3-0.4c0.3,0.1,0.6,0.5,0.4,1.1c-0.2,0.5-0.4,1-0.9,2.3
		c-0.5,1.3-0.6,1.8-0.8,2.3C17.4,52.9,17,53,16.6,52.9z M23.7,31.2c0.4,0.3,0.6,0.6,1.1,1.4l1.3,2c0.5,0.7,0.5,1.2,0.3,1.6
		c-0.3,0.5-0.8,0.3-1.4,1.2l-3.4,5.3c-0.8,1.2-1,1.7-1.3,2.1c-0.3,0.5-0.8,0.6-1.1,0.4c-0.8-0.5,0.2-1.3-1.1-2.1l-7.8-5
		c-1.2-0.8-1.6,0.4-2.3-0.1c-0.3-0.2-0.5-0.6-0.1-1.1c0.3-0.4,0.6-0.8,1.4-2.1l2.9-4.6c0.5-0.8,0.2-1.2,0.5-1.7
		c0.3-0.4,0.7-0.6,1.6-0.4l2.2,0.3c0.8,0.1,1.3,0.1,1.7,0.4s0.5,0.7,0.3,1.1c-0.2,0.3-0.5,0.4-1,0.5c-2,0.4-3.4,0.6-4.3,2l-0.6,0.7
		c-0.4,0.6-0.3,1,0.3,1.4l2.4,1.5c0.3,0.2,0.6,0.2,0.8-0.2l0.3-0.4c0.6-1-0.6-1.8-0.1-2.6c0.3-0.4,0.6-0.5,1.2-0.1
		c0.4,0.3,0.8,0.6,1.2,0.8c0.4,0.3,0.9,0.5,1.3,0.7c0.6,0.4,0.6,0.7,0.4,1.1c-0.5,0.7-1.7,0-2.4,1l-0.3,0.4
		c-0.3,0.4-0.2,0.6,0.1,0.9l2.5,1.6c0.6,0.4,1,0.3,1.4-0.3l0.8-1.3c0.9-1.5,0.7-2.9,0-5.1c-0.2-0.5-0.2-0.8,0-1.1
		C22.8,31.1,23.3,31,23.7,31.2z M29.8,12.7c0.6,0.7-0.6,1.3,0.4,2.4l7.4,8.3c0.5,0.6,0.3,1.1-0.1,1.5c-0.6,0.5-1.1,0.4-1.7,0.4
		l-11.6-1.5l4.6,5.1c1,1.1,1.9-0.4,2.6,0.4c0.3,0.4,0.2,0.8-0.3,1.2c-0.5,0.4-0.9,0.7-1.3,1.1c-0.4,0.3-0.8,0.8-1.2,1.1
		c-0.5,0.4-0.9,0.3-1.1,0.1c-0.6-0.7,0.6-1.3-0.4-2.4l-6.2-6.9c-1-1.1-1.7,0-2.3-0.6c-0.3-0.3-0.2-0.8,0.3-1.2
		c0.4-0.4,0.9-0.7,1.2-1c0.5-0.4,0.8-0.8,1.1-1.1c0.4-0.3,0.8-0.4,1.4-0.4l9.1,1.2l-3.3-3.7c-1-1.1-1.9,0.4-2.6-0.4
		c-0.2-0.3-0.2-0.8,0.3-1.2c0.5-0.4,0.9-0.7,1.3-1.1c0.4-0.3,0.8-0.8,1.2-1.1C29.1,12.4,29.6,12.4,29.8,12.7z M42.6,21.6
		c-1.2,0.7-1.6,1-2.1,1.3c-0.6,0.3-1,0.1-1.1-0.2c-0.4-0.8,0.8-1.1,0-2.3l-4.5-8.1c-0.7-1.3-1.6-0.4-2-1.2c-0.2-0.3-0.1-0.8,0.4-1.1
		c0.5-0.3,1-0.5,2.2-1.2c1.1-0.6,2.1-1.4,3.2-2c4-2.2,8.8-1.9,11.3,2.4c2,3.6,1.1,7.8-3.3,10.2C45.4,20.2,44,20.9,42.6,21.6z
		 M45,18.2c2.2-1.2,2.5-3.3,0.7-6.5c-1.9-3.3-4.2-4-6.2-2.9L39.1,9c-0.7,0.4-0.7,0.8-0.4,1.3l4.4,7.8c0.3,0.6,0.7,0.7,1.4,0.3
		L45,18.2z M54.6,15.8l-1.3-1.9c-0.5-0.8-0.9-1.4-1-1.8c-0.1-0.6,0.2-0.9,0.6-1c0.4-0.1,0.7,0.2,1,0.4c1.4,1.1,3.5,2.5,6,2.1
		c1.6-0.3,2.3-1.1,2.1-2.1c-0.2-1.3-1.7-1.4-3.8-1.6c-2.6-0.3-6-0.9-6.5-3.9c-0.4-2.5,1.4-4.6,4.1-5.1c1.6-0.3,2.5,0.1,3,0
		c0.5-0.1,0.4-0.8,1-0.9c0.7-0.1,1,0.4,1.7,1.2L62.2,2c0.9,1,1.2,1.6,1.3,2c0.1,0.4-0.2,0.8-0.5,0.9c-0.4,0.1-0.7-0.1-1.1-0.4
		c-1.1-0.8-3.1-1.9-5-1.6c-1.1,0.2-1.6,0.7-1.5,1.5c0.2,1,1.2,1.1,3.2,1.3c3.2,0.3,6.5,0.8,7.1,4.2c0.5,3-1.7,5.3-5.2,5.9
		c-1.8,0.3-3,0-3.6,0.1c-0.6,0.1-0.6,0.8-1.2,0.9C55.3,16.8,54.9,16.4,54.6,15.8z M87.7,6.8c-0.1,0.5-0.5,0.7-0.9,0.7
		c-0.4-0.1-0.5-0.3-0.8-0.8c-1.1-1.8-1.9-2.9-3.3-3.2l-1-0.2c-0.8-0.2-1.1,0.1-1.3,0.7l-0.5,3.1c-0.1,0.4,0,0.6,0.5,0.7l1,0.2
		c1.1,0.2,1.5-1.3,2.4-1.1C84.3,7,84.5,7.3,84.4,8c-0.1,0.5-0.3,1.1-0.4,1.5c-0.1,0.5-0.1,1.1-0.2,1.6c-0.1,0.6-0.5,0.9-0.9,0.8
		c-0.9-0.2-0.6-1.7-1.8-2l-1-0.2c-0.5-0.1-0.7,0-0.7,0.4l-0.5,2.8c-0.3,1.4,1.2,1.3,1,2.3c-0.1,0.4-0.4,0.7-1,0.5
		c-0.6-0.1-1.1-0.3-2.6-0.6c-1.4-0.3-2-0.3-2.5-0.4c-0.6-0.1-0.8-0.5-0.7-0.9c0.2-0.9,1.3-0.3,1.5-1.8l1.7-9.1
		c0.3-1.4-1-1.3-0.8-2.2c0.1-0.4,0.4-0.7,1-0.5c0.5,0.1,1,0.3,2.4,0.5l5.3,1c1,0.2,1.2-0.3,1.8-0.2c0.5,0.1,0.8,0.5,1,1.3l0.4,2.3
		C87.6,5.9,87.8,6.3,87.7,6.8z M87.4,10.1c2.1-4.5,6.8-5.8,10.9-3.9c4.2,2,6,6.4,4,10.8c-2,4.3-6.1,5.4-10.6,3.2
		C87.4,18.3,85.3,14.5,87.4,10.1z M98,14.7c1.2-2.5,1.6-5.7-0.5-6.7c-2.2-1-4.4,1.3-5.6,3.9c-1.2,2.5-1.4,5.4,0.7,6.4
		C94.7,19.5,96.7,17.4,98,14.7z M110.9,33.2c-0.2,0.3-0.6,0.3-0.9,0c-0.5-0.5-1.3-1.2-2.3-2.1c-0.9-0.8-1.6-1.3-2-1.7
		c-0.5-0.4-0.6-0.9-0.3-1.2c0.6-0.6,1,0.2,1.5-0.4c0.3-0.3,0.3-0.9,0.3-1.4l0.1-1.5c0-0.6,0-1-0.4-1.3l-0.4-0.3
		c-0.2-0.2-0.4-0.1-0.6,0.1l-1.3,1.5c-1,1.1,0.2,1.6-0.4,2.3c-0.2,0.3-0.7,0.4-1.1-0.1c-0.4-0.4-0.8-0.8-1.8-1.7
		c-1.1-0.9-1.5-1.2-1.9-1.6c-0.5-0.4-0.4-0.9-0.2-1.1c0.6-0.7,1.3,0.4,2.2-0.7l6.1-7c1-1.1-0.2-1.6,0.4-2.3c0.2-0.3,0.7-0.4,1.3,0.2
		c0.2,0.2,0.8,0.8,1.5,1.4c0.6,0.5,2,1.5,3,2.4c3.7,3.3,4.2,6.4,2.2,8.6c-1.3,1.5-3.1,1.9-4.9,1.2l-0.2,3
		C110.6,31.9,111.5,32.4,110.9,33.2z M112.3,22.2c1.5-1.7,1.1-3.2-0.2-4.3c-0.4-0.4-0.9-0.6-1.4,0l-2.9,3.3
		c-0.4,0.4-0.2,0.8,0.4,1.3C109.6,23.8,110.9,23.8,112.3,22.2z M117.4,45.3l-2.5-4.6c-0.7-1.2-1-1.7-1.2-2.1c-0.3-0.6-0.1-1,0.2-1.1
		c0.8-0.4,1,0.8,2.3,0.1l8.2-4.4c1.3-0.7,0.4-1.6,1.2-2c0.3-0.2,0.8,0,1.1,0.5s0.4,0.9,1.1,2.1c0.7,1.2,1,1.7,1.2,2.2
		c0.3,0.6,0.1,1-0.2,1.1c-0.8,0.4-1-0.8-2.3-0.1l-8,4.3c-0.6,0.3-0.7,0.7-0.4,1.4l0.4,0.7c0.6,1.2,2.2,1.8,4.4,2.3
		c0.5,0.1,0.8,0.2,1,0.6c0.2,0.3,0.1,0.8-0.4,1.1c-0.5,0.3-0.9,0.2-1.8,0.3l-2.4,0.1c-0.9,0.1-1.3-0.1-1.6-0.6
		C117.5,46.5,117.9,46.2,117.4,45.3z M119.8,49.5c0.9-0.3,0.9,1,2.3,0.6l8.9-2.6c1.4-0.4,0.7-1.4,1.6-1.7c0.4-0.1,0.8,0.2,1,0.8
		c0.2,0.5,0.2,0.9,0.6,2.3c0.4,1.4,0.6,1.8,0.7,2.4c0.2,0.6-0.1,1-0.4,1.1c-0.9,0.3-0.9-1-2.3-0.6l-8.9,2.6
		c-1.4,0.4-0.7,1.4-1.6,1.7c-0.4,0.1-0.8-0.1-0.9-0.7c-0.2-0.5-0.2-1-0.6-2.4c-0.4-1.4-0.6-1.8-0.7-2.4
		C119.2,50,119.5,49.6,119.8,49.5z M133.4,68.9c-0.5,0.1-0.9-0.3-0.9-0.6c0-0.4,0.1-0.6,0.5-1c1.3-1.6,2.2-2.7,2-4.2l-0.1-1.1
		c-0.1-0.7-0.4-1-1.1-0.9l-3.1,0.4c-0.4,0.1-0.5,0.2-0.5,0.7l0.1,1.1c0.1,1.2,1.7,1,1.8,1.9c0.1,0.5-0.2,0.8-0.8,0.9
		c-0.5,0.1-1.1,0.1-1.6,0.1c-0.5,0.1-1.1,0.2-1.6,0.3c-0.6,0.1-1-0.2-1-0.6c-0.1-0.9,1.5-1.1,1.3-2.3l-0.1-1.1
		c-0.1-0.5-0.2-0.6-0.6-0.6l-2.9,0.4c-1.5,0.2-0.9,1.6-1.8,1.7c-0.4,0-0.7-0.2-0.8-0.8c-0.1-0.6-0.1-1.1-0.3-2.6
		c-0.2-1.4-0.3-2-0.4-2.5c-0.1-0.6,0.2-0.9,0.6-1c0.9-0.1,0.7,1.1,2.2,0.9l9.2-1.2c1.5-0.2,0.9-1.3,1.9-1.4c0.4,0,0.7,0.2,0.8,0.8
		c0.1,0.5,0.1,1.1,0.3,2.5l0.7,5.4c0.1,1,0.7,1,0.7,1.7c0.1,0.5-0.2,0.9-0.9,1.3l-1.9,1.1C134.3,68.6,134,68.8,133.4,68.9z
		 M127,83.9c-0.5,0-0.9-0.2-1.7-0.6l-2.2-1c-0.8-0.4-1.1-0.7-1.1-1.2c0-0.6,0.5-0.7,0.5-1.7v-6.2c0-1.4-0.1-1.9-0.1-2.5
		c0-0.6,0.3-0.9,0.7-0.9c0.9,0,0.6,1.2,2,1.2h9.3c1.5,0,1.1-1.2,2-1.2c0.4,0,0.7,0.3,0.7,0.9c0,0.5-0.1,1-0.1,2.5v5.5
		c0,1,0.5,1.1,0.5,1.7c0,0.5-0.3,0.9-1.1,1.2l-2,0.9c-0.8,0.3-1.1,0.6-1.7,0.6c-0.5,0-0.8-0.4-0.8-0.7c0-0.4,0.2-0.6,0.6-0.9
		c1.5-1.4,2.6-2.3,2.6-4v-1c0-0.8-0.3-1-1-1h-2.8c-0.4,0-0.6,0.1-0.6,0.7v0.5c0,1.2,1.4,1.2,1.4,2.1c0,0.5-0.3,0.8-0.9,0.8
		c-0.5,0-1-0.1-1.5-0.1s-1,0.1-1.5,0.1c-0.7,0-0.9-0.3-0.9-0.8c0-0.9,1.4-0.9,1.4-2.1v-0.5c0-0.5-0.2-0.7-0.6-0.7h-3
		c-0.7,0-1,0.3-1,1v1.4c0,1.8,1,2.8,2.7,4.3c0.4,0.3,0.6,0.6,0.6,0.9C127.8,83.5,127.5,83.9,127,83.9z M8.1,94.3
		c0,1.5-0.9,2.8-4,2.8c-0.7,0-0.8-0.1-0.8,0.3v0.8c0,0.7,0.8,0.5,0.8,1c0,0.2-0.1,0.4-0.5,0.4c-0.3,0-0.7,0-1.6,0
		c-0.8,0-1.1,0-1.4,0c-0.4,0-0.5-0.2-0.5-0.4c0-0.5,0.7-0.3,0.7-1.1v-5.2c0-0.8-0.7-0.6-0.7-1.1c0-0.2,0.2-0.4,0.6-0.4
		c0.3,0,0.5,0,1.3,0c0.5,0,1.2-0.1,1.9-0.1C6.8,91.3,8.1,92.5,8.1,94.3z M5.5,94.3c0-1.2-0.6-1.8-1.6-1.8c-0.7,0-0.7,0.3-0.7,0.5
		v2.6c0,0.4,0.2,0.5,0.7,0.5C4.9,96,5.5,95.4,5.5,94.3z M17.3,99.3c0,0.2-0.1,0.3-0.4,0.3c-0.4,0-1,0-1.7,0s-1.2,0-1.5,0
		c-0.4,0-0.6-0.1-0.6-0.4c0-0.5,0.5-0.3,0.5-0.7c0-0.2-0.2-0.5-0.4-0.7l-0.5-0.7c-0.2-0.3-0.4-0.4-0.6-0.4h-0.3
		c-0.1,0-0.2,0.1-0.2,0.3v1.1c0,0.8,0.7,0.6,0.7,1.1c0,0.2-0.1,0.4-0.5,0.4c-0.3,0-0.6,0-1.4,0c-0.8,0-1.1,0-1.4,0
		c-0.4,0-0.5-0.2-0.5-0.4c0-0.5,0.7-0.3,0.7-1.1v-5.2c0-0.8-0.7-0.6-0.7-1.1c0-0.2,0.1-0.4,0.6-0.4c0.2,0,0.7,0,1.1,0
		c0.5,0,1.4-0.1,2.1-0.1c2.8,0,4.1,1.1,4.1,2.8c0,1.1-0.6,2-1.6,2.3l1,1.3C16.7,98.8,17.3,98.7,17.3,99.3z M13.8,94.2
		c0-1.2-0.7-1.7-1.6-1.7c-0.3,0-0.6,0.1-0.6,0.5v2.5c0,0.3,0.2,0.4,0.6,0.4C13.3,95.8,13.8,95.3,13.8,94.2z M26,97.1
		c0,0.3-0.1,0.5-0.3,0.9l-0.6,1.3c-0.2,0.4-0.4,0.6-0.7,0.6s-0.4-0.3-1-0.3h-3.5c-0.8,0-1.1,0-1.4,0c-0.4,0-0.5-0.2-0.5-0.4
		c0-0.5,0.7-0.3,0.7-1.1v-5.2c0-0.8-0.7-0.6-0.7-1.1c0-0.2,0.1-0.4,0.5-0.4c0.3,0,0.6,0,1.4,0H23c0.6,0,0.6-0.3,1-0.3
		c0.3,0,0.5,0.2,0.7,0.6l0.5,1.1c0.2,0.4,0.3,0.6,0.3,0.9s-0.2,0.5-0.4,0.5s-0.3-0.1-0.5-0.3c-0.8-0.8-1.3-1.4-2.2-1.4h-0.5
		c-0.4,0-0.6,0.2-0.6,0.5v1.6c0,0.2,0.1,0.3,0.4,0.3H22c0.7,0,0.7-0.8,1.2-0.8c0.3,0,0.4,0.2,0.4,0.5s0,0.5,0,0.8c0,0.3,0,0.5,0,0.8
		c0,0.4-0.2,0.5-0.4,0.5c-0.5,0-0.5-0.8-1.2-0.8h-0.3c-0.3,0-0.4,0.1-0.4,0.3v1.7c0,0.4,0.1,0.5,0.6,0.5h0.9c1,0,1.6-0.6,2.4-1.5
		c0.2-0.2,0.3-0.3,0.5-0.3C25.8,96.7,26,96.9,26,97.1z M35.1,91.7c0,0.6-0.7,0.4-1.1,1.4L31.8,99c-0.2,0.5-0.4,0.7-1.4,0.7
		c-0.9,0-1.2-0.2-1.4-0.7l-2.3-5.9c-0.4-0.9-1-0.8-1-1.4c0-0.2,0.2-0.4,0.4-0.4c0.4,0,0.8,0,1.6,0s1.3,0,1.7,0s0.6,0.1,0.6,0.4
		c0,0.6-0.8,0.4-0.8,1c0,0.2,0.1,0.4,0.2,0.7l1.6,4l1.6-4.2c0.1-0.3,0.1-0.5,0.1-0.6c0-0.6-0.9-0.4-0.9-1c0-0.3,0.2-0.4,0.6-0.4
		c0.4,0,0.8,0,1.1,0c0.4,0,0.7,0,1.1,0C34.9,91.4,35.1,91.5,35.1,91.7z M43.6,97.1c0,0.3-0.1,0.5-0.3,0.9l-0.6,1.2
		c-0.2,0.4-0.4,0.6-0.7,0.6c-0.3,0-0.4-0.3-1-0.3h-3.5c-0.8,0-1.1,0-1.4,0c-0.4,0-0.5-0.2-0.5-0.4c0-0.5,0.7-0.3,0.7-1.1v-5.1
		c0-0.8-0.7-0.6-0.7-1.1c0-0.2,0.1-0.4,0.5-0.4c0.3,0,0.6,0,1.4,0h3.1c0.6,0,0.6-0.3,1-0.3c0.3,0,0.5,0.2,0.7,0.6l0.5,1.1
		c0.2,0.4,0.3,0.6,0.3,0.9s-0.2,0.5-0.4,0.5s-0.3-0.1-0.5-0.3c-0.8-0.8-1.3-1.4-2.2-1.4h-0.5c-0.4,0-0.6,0.2-0.6,0.5v1.6
		c0,0.2,0.1,0.3,0.4,0.3h0.3c0.7,0,0.7-0.8,1.2-0.8c0.3,0,0.4,0.2,0.4,0.5s0,0.5,0,0.8c0,0.3,0,0.5,0,0.8c0,0.4-0.2,0.5-0.4,0.5
		c-0.5,0-0.5-0.8-1.2-0.8h-0.3c-0.3,0-0.4,0.1-0.4,0.3v1.7c0,0.4,0.1,0.5,0.6,0.5h0.9c1,0,1.6-0.6,2.4-1.5c0.2-0.2,0.3-0.3,0.5-0.3
		C43.4,96.7,43.6,96.9,43.6,97.1z M52.2,91.8c0,0.5-0.7,0.3-0.7,1.1v6.2c0,0.4-0.3,0.6-0.6,0.6c-0.4,0-0.6-0.2-0.9-0.5l-4.3-5V98
		c0,0.8,0.9,0.5,0.9,1.1c0,0.3-0.2,0.4-0.6,0.4c-0.4,0-0.7,0-1,0c-0.3,0-0.6,0-0.9,0c-0.4,0-0.5-0.2-0.5-0.4c0-0.5,0.7-0.3,0.7-1.1
		v-5.1c0-0.8-0.7-0.6-0.7-1.1c0-0.2,0.2-0.4,0.6-0.4c0.3,0,0.6,0,0.9,0s0.6,0,0.9,0c0.3,0,0.5,0.1,0.7,0.4l3.4,3.9v-2.8
		c0-0.8-0.9-0.5-0.9-1.1c0-0.2,0.2-0.4,0.6-0.4s0.7,0,1,0c0.3,0,0.6,0,0.9,0C52.1,91.4,52.2,91.6,52.2,91.8z M54.9,99.2
		c0-0.6,0.8-0.3,0.8-1.1v-5c0-0.4-0.1-0.6-0.5-0.6h-0.1c-0.6,0-1.1,0.6-1.8,1.4c-0.2,0.2-0.3,0.3-0.5,0.3c-0.2,0-0.4-0.2-0.4-0.5
		s0.1-0.5,0.3-0.9l0.4-1.1c0.2-0.4,0.4-0.6,0.6-0.6c0.3,0,0.4,0.3,1,0.3h4.5c0.6,0,0.6-0.3,1-0.3c0.3,0,0.5,0.2,0.6,0.6l0.4,1.1
		c0.2,0.4,0.3,0.6,0.3,0.9s-0.2,0.5-0.4,0.5s-0.3-0.1-0.5-0.3c-0.8-0.8-1.2-1.4-1.8-1.4h-0.1c-0.4,0-0.5,0.2-0.5,0.6v5
		c0,0.8,0.8,0.5,0.8,1.1c0,0.2-0.1,0.4-0.5,0.4c-0.3,0-0.7,0-1.6,0s-1.2,0-1.6,0C55,99.5,54.9,99.4,54.9,99.2z M65.5,95.7
		c0-2.8,2.1-4.5,4.6-4.5c2.6,0,4.6,1.8,4.6,4.5c0,2.6-1.8,4.2-4.6,4.2C67.4,99.8,65.5,98.4,65.5,95.7z M71.9,95.5
		c0-1.5-0.5-3.3-1.9-3.3s-1.9,1.7-1.9,3.3c0,1.6,0.6,3.1,1.9,3.1C71.4,98.7,71.9,97.2,71.9,95.5z M83.8,91.7c0,0.6-0.7,0.4-1.1,1.4
		L80.4,99c-0.2,0.5-0.4,0.7-1.4,0.7c-0.9,0-1.2-0.2-1.4-0.7l-2.3-5.9c-0.4-0.9-1-0.8-1-1.4c0-0.2,0.2-0.4,0.4-0.4c0.4,0,0.8,0,1.6,0
		s1.3,0,1.7,0s0.6,0.1,0.6,0.4c0,0.6-0.8,0.4-0.8,1c0,0.2,0.1,0.4,0.2,0.7l1.6,4l1.6-4.2c0.1-0.3,0.1-0.5,0.1-0.6
		c0-0.6-0.9-0.4-0.9-1c0-0.3,0.2-0.4,0.6-0.4c0.4,0,0.8,0,1.1,0c0.4,0,0.7,0,1.1,0C83.6,91.4,83.8,91.5,83.8,91.7z M92.3,97.1
		c0,0.3-0.1,0.5-0.3,0.9l-0.6,1.2c-0.2,0.4-0.4,0.6-0.7,0.6c-0.3,0-0.4-0.3-1-0.3h-3.5c-0.8,0-1.1,0-1.4,0c-0.4,0-0.5-0.2-0.5-0.4
		c0-0.5,0.7-0.3,0.7-1.1v-5.1c0-0.8-0.7-0.6-0.7-1.1c0-0.2,0.1-0.4,0.5-0.4c0.3,0,0.6,0,1.4,0h3.1c0.6,0,0.6-0.3,1-0.3
		c0.3,0,0.5,0.2,0.7,0.6l0.5,1.1c0.2,0.4,0.3,0.6,0.3,0.9s-0.2,0.5-0.4,0.5c-0.2,0-0.3-0.1-0.5-0.3c-0.8-0.8-1.3-1.4-2.2-1.4h-0.5
		c-0.4,0-0.6,0.2-0.6,0.5v1.6c0,0.2,0.1,0.3,0.4,0.3h0.3c0.7,0,0.7-0.8,1.2-0.8c0.3,0,0.4,0.2,0.4,0.5s0,0.5,0,0.8
		c0,0.3,0,0.5,0,0.8c0,0.4-0.2,0.5-0.4,0.5c-0.5,0-0.5-0.8-1.2-0.8h-0.4c-0.3,0-0.4,0.1-0.4,0.3v1.7c0,0.4,0.1,0.5,0.6,0.5H89
		c1,0,1.6-0.6,2.4-1.5c0.2-0.2,0.3-0.3,0.5-0.3C92.1,96.7,92.3,96.9,92.3,97.1z M101.5,99.3c0,0.2-0.1,0.3-0.4,0.3c-0.4,0-1,0-1.7,0
		c-0.7,0-1.2,0-1.5,0c-0.4,0-0.6-0.1-0.6-0.4c0-0.5,0.5-0.3,0.5-0.7c0-0.2-0.2-0.5-0.4-0.7L97,97.1c-0.2-0.3-0.4-0.4-0.6-0.4h-0.3
		c-0.1,0-0.2,0.1-0.2,0.3v1.1c0,0.8,0.7,0.6,0.7,1.1c0,0.2-0.1,0.4-0.5,0.4c-0.3,0-0.6,0-1.4,0c-0.8,0-1.1,0-1.4,0
		c-0.4,0-0.5-0.2-0.5-0.4c0-0.5,0.7-0.3,0.7-1.1v-5.2c0-0.8-0.7-0.6-0.7-1.1c0-0.2,0.1-0.4,0.6-0.4c0.2,0,0.7,0,1.1,0
		c0.5,0,1.4-0.1,2.1-0.1c2.8,0,4.1,1.1,4.1,2.8c0,1.1-0.6,2-1.6,2.3l1,1.3C100.9,98.8,101.5,98.7,101.5,99.3z M98.1,94.2
		c0-1.2-0.7-1.7-1.6-1.7c-0.3,0-0.6,0.1-0.6,0.5v2.5c0,0.3,0.2,0.4,0.6,0.4C97.6,95.8,98.1,95.3,98.1,94.2z M104.1,99.5
		c-0.8,0-1.1,0-1.4,0c-0.4,0-0.5-0.2-0.5-0.4c0-0.5,0.7-0.3,0.7-1.1v-5.2c0-0.8-0.7-0.6-0.7-1.1c0-0.2,0.1-0.4,0.5-0.4
		c0.3,0,0.6,0,1.4,0c0.7,0,1.4-0.1,2.1-0.1c2.5,0,4.8,1.5,4.8,4.2c0,2.3-1.6,4.1-4.4,4.1C105.8,99.6,105,99.5,104.1,99.5z
		 M106.2,98.6c1.4,0,2.1-0.9,2.1-3c0-2.1-1-3.1-2.2-3.1h-0.2c-0.4,0-0.6,0.2-0.6,0.5v5c0,0.4,0.1,0.5,0.6,0.5L106.2,98.6L106.2,98.6
		z M111.8,95.7c0-2.8,2.1-4.5,4.6-4.5c2.6,0,4.6,1.8,4.6,4.5c0,2.6-1.8,4.2-4.6,4.2C113.8,99.8,111.8,98.4,111.8,95.7z M118.3,95.5
		c0-1.5-0.5-3.3-1.9-3.3s-1.9,1.7-1.9,3.3c0,1.6,0.6,3.1,1.9,3.1C117.8,98.7,118.3,97.2,118.3,95.5z M122.4,99.3l-0.5-1.1
		c-0.2-0.5-0.4-0.8-0.4-1.1s0.2-0.5,0.4-0.5c0.2,0,0.4,0.2,0.5,0.3c0.7,0.7,1.7,1.7,3.1,1.7c0.9,0,1.3-0.4,1.3-0.9
		c0-0.7-0.8-0.9-2-1.3c-1.4-0.4-3.2-1-3.2-2.8c0-1.4,1.2-2.4,2.7-2.4c0.9,0,1.4,0.3,1.7,0.3s0.3-0.4,0.6-0.4c0.4,0,0.5,0.3,0.8,0.8
		l0.3,0.5c0.4,0.6,0.5,1,0.5,1.2S128,94,127.9,94c-0.2,0-0.4-0.1-0.6-0.3c-0.5-0.6-1.5-1.3-2.6-1.3c-0.6,0-1,0.3-1,0.7
		c0,0.5,0.6,0.7,1.6,1c1.8,0.5,3.5,1.1,3.5,3c0,1.7-1.4,2.8-3.4,2.8c-1,0-1.7-0.3-2-0.3c-0.4,0-0.4,0.4-0.7,0.4
		C122.7,99.8,122.6,99.5,122.4,99.3z M137.2,97.1c0,0.3-0.1,0.5-0.3,0.9l-0.6,1.2c-0.2,0.4-0.4,0.6-0.7,0.6s-0.4-0.3-1-0.3h-3.5
		c-0.8,0-1.1,0-1.4,0c-0.4,0-0.5-0.2-0.5-0.4c0-0.5,0.7-0.3,0.7-1.1v-5.1c0-0.8-0.7-0.6-0.7-1.1c0-0.2,0.1-0.4,0.5-0.4
		c0.3,0,0.6,0,1.4,0h3.1c0.6,0,0.6-0.3,1-0.3c0.3,0,0.5,0.2,0.7,0.6l0.5,1.1c0.2,0.4,0.3,0.6,0.3,0.9s-0.2,0.5-0.4,0.5
		s-0.3-0.1-0.5-0.3c-0.8-0.8-1.3-1.4-2.2-1.4h-0.5c-0.4,0-0.6,0.2-0.6,0.5v1.6c0,0.2,0.1,0.3,0.4,0.3h0.3c0.7,0,0.7-0.8,1.2-0.8
		c0.3,0,0.4,0.2,0.4,0.5s0,0.5,0,0.8c0,0.3,0,0.5,0,0.8c0,0.4-0.2,0.5-0.4,0.5c-0.5,0-0.5-0.8-1.2-0.8h-0.3c-0.3,0-0.4,0.1-0.4,0.3
		v1.7c0,0.4,0.1,0.5,0.6,0.5h0.9c1,0,1.6-0.6,2.4-1.5c0.2-0.2,0.3-0.3,0.5-0.3C137,96.7,137.2,96.9,137.2,97.1z M61.1,51.3
		C61.1,51.3,61,51.3,61.1,51.3c-1.3,0-1.6,1.4-1.6,2.6c0,0.3,0.4,0.4,0.6,0.5c1,0.2,2.4,0,2.5-0.3c0.1-0.4,0-1.5-0.5-2.2
		C61.8,51.5,61.5,51.3,61.1,51.3z M93.5,48c-1,0-1.8,0.6-2.1,1.6c-0.5,1.5-1.7,8.3-5.4,10.8c-3.8,2.6-10.3,3-14.3,3
		c-2,0-3.3-0.1-3.5-0.1c-0.1,0-0.2-0.1-0.2-0.2c0-0.1,0.1-0.2,0.2-0.2c0,0,3,0.2,6.7,0c3.4-0.2,8-0.9,10.8-2.9
		c3.4-2.3,5.3-9.3,5.4-13.6c0.1-2.5-0.7-3.5-2.1-3.6c-1.7-0.1-2.3,1.4-2.5,2.2c-0.3,2.4-1.3,7.8-3.8,10.2c-2.5,2.4-6.4,3.3-9.2,3.6
		C72.2,59,70.9,59,70,59c-1.2,0-1.9-0.1-1.9-0.1c-0.1,0-0.2-0.1-0.2-0.2c0-0.1,0.1-0.2,0.2-0.2s9.6,0.8,14.3-3.6
		c3-2.9,3.9-11.5,3.8-12.2c-0.2-1.7-1.1-2.9-2.7-2.9c-1.7,0-2.1,1.6-2.4,3.1c-0.1,0.5-0.2,2.3-0.4,3.7c-0.4,2.4-1.2,4.3-2.5,5.6
		c-1.2,1.2-3.4,2.1-6.6,2.5C69.7,55,67.9,55,67.4,55c-0.1,0-0.2,0-0.2,0c-0.1,0-0.2-0.1-0.2-0.2c0-0.1,0.1-0.2,0.2-0.2l0,0
		c0.1,0,8,0.1,10.6-2.7c1.9-2,2.6-5.2,2.6-7.7c0-0.5-0.2-1.7-1.6-1.8c-1.4,0-1.7,0.9-2,2.1c-0.2,0.7-0.5,4.1-2.7,5.4
		c-2.5,1.5-6.3,1.5-10.7,2c0.3,1,0.4,2,0.4,2.8c0.2,2.4-0.2,7.7-0.2,7.7c0,0.1-0.1,0.2-0.2,0.2c-0.1,0-0.2-0.1-0.2-0.2
		s0.3-5.2,0.2-7.7c-0.1-0.8-0.3-3.4-1.2-4.3c-0.4-0.4-0.8-0.6-1.3-0.6l0,0c-1.5,0-2.4,0.8-2.7,2.3c-0.1,0.3-0.3,1.8-0.4,2.6
		c-0.1,0.5-0.1,1.1-0.2,1.6c-0.6,3.6-1.4,9.2-1.4,9.2c0,0.1-0.1,0.2-0.2,0.2l0,0c-0.1,0-0.2-0.1-0.2-0.2s0.8-5.7,1.4-9.2
		c0.1-0.5,0.2-1.1,0.2-1.6c0.1-0.7,0.2-1.4,0.3-2.1l-0.5,0.1l0,0c-4.8,0.7-10,1.7-13,5c-3.7,4.2-4,8-4.6,11.8
		c-0.2,1.6-0.6,9.2-0.2,11.2c0.5,2.3,4.2,2.9,9.4,2.9c4.4,0,8.6-0.7,9.5-2.3c0.2-0.4,0.3-0.8,0.3-1.2c0-0.5,0-1.4-0.1-2.4
		c-0.1-2.7,0.6-5.2,2.8-7.1c2.9-2.6,12.4-2,15.9-2.2c6.5-0.4,11.5-2.5,14.6-5.7c2.8-2.9,3.8-8.7,3.8-11.1
		C96.1,50.1,95.7,48.1,93.5,48z M63,54.1c-0.1,0.4-1.1,0.6-2,0.6c-0.2,0-0.5,0-0.7,0c-1-0.2-1.2-0.6-1.2-0.9c0-1.9,0.8-2.9,2-2.9
		l0,0c0.5,0,1,0.2,1.4,0.7C63,52.4,63.1,53.6,63,54.1z"/>
	<path class="st3" d="M71,32.7c-0.2-0.4-0.5-0.9-1.3-1c-0.6,0-2.5-0.2-4.2-0.2c-0.1-1.7-0.4-8.8-0.8-9.4c-0.4-0.6-1.1-0.8-1.7-0.8
		c-0.9,0-1.3,0.4-1.6,0.9c-0.2,0.4-0.6,7-0.7,9.3c-2,0.1-4,0.3-4.3,0.4c-0.4,0.1-0.6,0.3-0.7,0.8c-0.2,0.5-0.6,9.7-0.4,10.1
		c0.3,0.4,2.1,0.4,2.7,0.3c0.5-0.2,0.4-5.8,1.5-6.7c0.6-0.5,1.4-0.9,2.3-1.1c0,1.4-0.1,4.7,0,5c0.2,0.4,0.9,0.7,1.7,0.7
		s1.3-0.4,1.3-0.6c0-0.2,0-3.7,0-5.1c1.2,0.2,1.9,0.6,2.6,1.3c0.8,0.8,0.4,6,1.1,6.5c0.7,0.4,2.5,0.3,3-0.1C72,42.5,71.2,33,71,32.7
		z M65.5,32.5c0,0-0.7,0.8-2.3,0.8c-1.6,0-2.4-0.8-2.4-0.8c-0.1-0.1-0.1-0.2,0-0.3c0.1-0.1,0.2-0.1,0.3,0c0,0,0.7,0.7,2.1,0.7
		c1.5,0,2-0.7,2-0.7c0.1-0.1,0.2-0.1,0.3,0C65.6,32.3,65.6,32.4,65.5,32.5z"/>
</g>
</svg>
