<?xml version="1.0" encoding="UTF-8"?>
<svg id="Layer_1" data-name="Layer 1" xmlns="http://www.w3.org/2000/svg" viewBox="0 0 1873.05 317.99">
  <defs>
    <style>
      .cls-1 {
        fill: #231f20;
      }
    </style>
  </defs>
  <path class="cls-1" d="m1086.65,189.24l.15.61c-19.82,10.92-38.38,21.96-55.6,32.95l.34-1.49c17.11-10.69,35.55-21.42,55.1-32.07Zm7.33-3.36c-2.41,1.3-4.81,2.63-7.18,3.97l1.91,8.4c2.71-1.37,5.42-2.75,8.17-4.09-1.22-2.71-2.1-5.69-2.9-8.29Zm2.9,8.29c-1.22-2.71-2.1-5.69-2.9-8.29-2.41,1.3-4.81,2.63-7.18,3.97l1.91,8.4.08.31c2.71-1.41,5.42-2.79,8.17-4.16-.04-.08-.08-.15-.08-.23Zm0,0c-1.22-2.71-2.1-5.69-2.9-8.29-2.41,1.3-4.81,2.63-7.18,3.97l1.91,8.4c-20.81,10.42-40.55,21-59.11,31.58l-.19.95c18.6-10.81,38.45-21.57,59.38-32.23,2.71-1.41,5.42-2.79,8.17-4.16-.04-.08-.08-.15-.08-.23ZM206.46,68.88c-2.29-.57-4.43-1.03-6.49-1.45s-3.93-.84-5.61-1.3c-3.32-.88-5.77-1.99-7.29-3.4-1.49-1.37-2.25-3.44-2.25-6.22,0-3.17,1.26-5.5,3.82-7.06s5.69-2.33,9.39-2.33,7.14.65,10.69,1.95c3.51,1.34,6.72,3.13,9.58,5.38h.61v-12.03c-2.56-1.37-5.69-2.52-9.47-3.44-3.74-.95-7.48-1.41-11.19-1.41-7.52,0-13.56,1.91-18.14,5.69-4.54,3.82-6.8,8.71-6.8,14.74,0,4.39,1.15,8.13,3.47,11.23,2.29,3.09,5.99,5.38,11.11,6.84,1.95.57,4.09,1.07,6.41,1.57,2.29.46,4.2.88,5.61,1.26,3.7.92,6.3,2.06,7.75,3.4,1.45,1.37,2.18,3.36,2.18,6.03,0,2.1-.31,3.63-.92,4.7-.61,1.03-1.64,1.99-3.02,2.9-.99.65-2.52,1.18-4.54,1.6s-3.97.61-5.77.61c-2.44,0-4.85-.31-7.14-.99s-4.39-1.45-6.3-2.33c-2.18-.99-3.89-1.95-5.19-2.86-1.3-.95-2.41-1.76-3.36-2.52h-.61v12.6c2.56,1.37,5.77,2.63,9.66,3.86,3.89,1.18,8.06,1.79,12.52,1.79s8.32-.53,11.34-1.57,5.73-2.56,8.13-4.54c2.18-1.83,3.86-4.05,5-6.61,1.11-2.6,1.68-5.31,1.68-8.17,0-4.96-1.22-8.86-3.74-11.72-2.48-2.9-6.19-4.93-11.15-6.19Zm153.62-31.54c-3.63,0-7.06.8-10.35,2.41s-6.57,3.89-9.93,6.87v-7.41h-11.26v66.82h11.26v-49.91c2.83-2.37,5.73-4.31,8.71-5.84,2.98-1.49,5.84-2.21,8.63-2.21s5.08.38,6.72,1.22c1.64.8,2.9,2.06,3.82,3.74.84,1.6,1.41,3.7,1.72,6.38.31,2.63.46,5.5.46,8.59v38.03h11.23v-43.38c0-8.21-1.83-14.47-5.54-18.82-3.74-4.31-8.86-6.49-15.46-6.49Zm77.82,1.87h10.58v59.22c0,11.34-2.48,19.66-7.41,24.97-4.96,5.31-12.52,7.94-22.68,7.94-3.28,0-6.61-.27-10.04-.76-3.4-.53-6.57-1.22-9.55-2.1v-11.72h.61c.76.31,1.87.73,3.36,1.26,1.45.57,3.13,1.07,5,1.57,2.1.5,4.01.92,5.77,1.22,1.76.34,3.67.5,5.73.5,3.47,0,6.41-.46,8.82-1.37,2.44-.92,4.31-2.21,5.69-3.82,1.26-1.64,2.14-3.55,2.67-5.69.53-2.18.76-4.62.76-7.37v-5.88c-3.02,2.63-5.99,4.58-8.9,5.84s-6.57,1.91-10.96,1.91c-7.6,0-13.67-2.86-18.18-8.52-4.51-5.65-6.76-13.78-6.76-24.4,0-5.57.76-10.46,2.33-14.78,1.53-4.28,3.63-7.9,6.26-10.92,2.52-2.86,5.5-5.08,8.94-6.64,3.44-1.53,6.99-2.33,10.65-2.33,3.47,0,6.45.42,9.01,1.22,2.52.84,5.08,1.99,7.6,3.51l.69-2.86Zm-.69,12.03c-2.79-1.37-5.35-2.33-7.75-2.9-2.37-.57-4.73-.88-7.06-.88-5.73,0-10.2,2.1-13.48,6.3-3.28,4.16-4.89,10.2-4.89,17.98s1.22,13.1,3.74,16.95c2.48,3.86,6.53,5.8,12.1,5.8,2.9,0,5.92-.57,9.01-1.76,3.09-1.15,5.88-2.75,8.32-4.85v-36.66Zm-173.7-13.9c-3.63,0-7.1.8-10.35,2.41-3.28,1.6-6.61,3.89-9.97,6.87V12.94h-11.23v93.09h11.23v-49.91c2.86-2.37,5.73-4.31,8.71-5.84,2.98-1.49,5.88-2.21,8.67-2.21s5.08.38,6.68,1.22c1.64.8,2.94,2.06,3.86,3.74.84,1.6,1.37,3.7,1.68,6.38.31,2.63.46,5.5.46,8.59v38.03h11.26v-43.38c0-8.21-1.87-14.47-5.57-18.82-3.7-4.31-8.86-6.49-15.43-6.49Zm496.4-17.34h-11.23v19.21h-7.64v9.32h7.64v37.04c0,7.56,1.68,13.06,5.12,16.57,3.44,3.47,8.25,5.23,14.36,5.23,1.83,0,3.86-.19,6.03-.5,2.18-.34,4.31-.84,6.42-1.41v-10.12h-.65c-.76.34-1.99.8-3.7,1.34-1.72.53-3.47.8-5.31.8-2.6,0-4.66-.34-6.19-1.03-1.53-.69-2.6-1.76-3.28-3.13-.8-1.6-1.26-3.32-1.38-5.15-.11-1.83-.19-4.47-.19-7.87v-31.77h20.7v-9.32h-20.7v-19.21Zm-460.01,8.02h12.79v-11.68h-12.79v11.68Zm176.95-8.02h-11.26v19.21h-7.6v9.32h7.6v37.04c0,7.56,1.72,13.06,5.15,16.57,3.44,3.47,8.21,5.23,14.36,5.23,1.83,0,3.86-.19,6.03-.5,2.18-.34,4.31-.84,6.41-1.41v-10.12h-.65c-.76.34-1.99.8-3.7,1.34s-3.51.8-5.35.8c-2.6,0-4.62-.34-6.15-1.03s-2.63-1.76-3.28-3.13c-.8-1.6-1.26-3.32-1.37-5.15s-.19-4.47-.19-7.87v-31.77h20.7v-9.32h-20.7v-19.21Zm388.64,0h-11.26v19.21h-7.6v9.32h7.6v37.04c0,7.56,1.72,13.06,5.15,16.57,3.44,3.47,8.21,5.23,14.36,5.23,1.83,0,3.86-.19,6.03-.5,2.18-.34,4.31-.84,6.41-1.41v-10.12h-.65c-.76.34-1.99.8-3.7,1.34-1.72.53-3.51.8-5.35.8-2.6,0-4.66-.34-6.15-1.03-1.53-.69-2.64-1.76-3.28-3.13-.8-1.6-1.26-3.32-1.37-5.15-.15-1.83-.19-4.47-.19-7.87v-31.77h20.7v-9.32h-20.7v-19.21Zm-146.55,38.18c-2.41-.73-5.42-1.53-9.05-2.37-3.63-.88-6.72-1.64-9.2-2.33-3.82-1.03-6.68-2.67-8.71-4.89-1.99-2.25-2.98-5.27-2.98-9.05,0-4.2,1.68-7.56,5.08-10.12,3.4-2.6,7.83-3.89,13.36-3.89,4.85,0,9.51.99,13.94,2.9,4.43,1.95,8.06,4.2,10.88,6.8h.92v-14.17c-3.82-1.83-7.94-3.25-12.37-4.24-4.47-.99-9.16-1.53-14.17-1.53-8.74,0-15.92,2.44-21.54,7.33-5.61,4.89-8.44,10.96-8.44,18.18,0,3.47.5,6.53,1.53,9.2,1.03,2.63,2.44,4.93,4.28,6.91,1.87,1.99,4.05,3.59,6.45,4.85,2.44,1.22,5.19,2.25,8.29,3.05,3.44.88,6.26,1.57,8.55,2.06,2.25.53,4.77,1.18,7.52,1.99,3.86,1.07,6.64,2.75,8.4,4.96,1.76,2.25,2.64,5.12,2.64,8.67,0,4.47-1.68,8.1-5.04,10.81-3.36,2.75-8.29,4.12-14.85,4.12-4.58,0-9.36-1.03-14.28-3.02-4.96-2.02-9.39-4.89-13.29-8.55h-.84v14.85c3.97,1.95,8.25,3.59,12.75,4.93,4.54,1.34,10.04,2.02,16.5,2.02,5.42,0,9.97-.73,13.56-2.1,3.63-1.41,6.87-3.4,9.74-5.99,2.56-2.37,4.54-5.23,5.96-8.63,1.41-3.36,2.1-6.8,2.1-10.27,0-5.54-1.41-10.23-4.24-14.01-2.83-3.78-7.33-6.61-13.44-8.48Zm228.84,15.62h-46.32c0,7.75,1.95,13.71,5.84,17.83,3.93,4.09,9.32,6.15,16.23,6.15,2.48,0,4.89-.27,7.26-.84,2.41-.53,4.54-1.26,6.45-2.14,2.02-.92,3.74-1.83,5.15-2.67,1.38-.84,2.56-1.68,3.48-2.44h.65v12.3c-1.34.5-2.94,1.15-4.93,1.95-1.95.76-3.7,1.37-5.27,1.83-2.18.57-4.16,1.03-5.96,1.37-1.76.31-4.01.46-6.72.46-10.65,0-18.9-2.98-24.78-9.01-5.92-5.99-8.86-14.51-8.86-25.58s2.86-19.55,8.55-26c5.73-6.41,13.17-9.66,22.41-9.66,4.12,0,7.79.61,11,1.79,3.21,1.22,5.99,3.09,8.36,5.65,2.41,2.52,4.24,5.65,5.54,9.36,1.26,3.67,1.91,8.21,1.91,13.56v6.11Zm-10.96-8.63c-.08-3.02-.42-5.65-1.07-7.83-.65-2.21-1.57-4.05-2.75-5.57-1.34-1.68-3.02-2.94-5.08-3.82-2.06-.88-4.58-1.34-7.64-1.34s-5.5.46-7.6,1.34c-2.1.92-4.01,2.21-5.73,3.93-1.68,1.76-2.94,3.7-3.82,5.84-.88,2.14-1.45,4.62-1.68,7.45h35.36Zm-101.04-15.5c1.22,2.9,1.79,6.45,1.79,10.65v45.71h-11.19v-7.1c-.92.69-2.14,1.6-3.67,2.83-1.53,1.22-3.02,2.21-4.47,2.9-1.99,1.03-3.89,1.83-5.77,2.41s-4.47.84-7.83.84c-2.75,0-5.35-.53-7.83-1.57-2.48-1.03-4.66-2.48-6.53-4.35-1.79-1.83-3.21-4.12-4.28-6.8-1.11-2.71-1.64-5.54-1.64-8.52,0-4.66.99-8.59,2.94-11.84s5.04-5.84,9.28-7.75c3.74-1.72,8.17-2.9,13.29-3.55,5.12-.65,10.62-1.15,16.5-1.49v-2.14c0-2.63-.38-4.77-1.18-6.38s-1.91-2.86-3.36-3.74c-1.41-.92-3.17-1.53-5.27-1.83-2.06-.27-4.2-.42-6.38-.42-2.6,0-5.65.38-9.17,1.15-3.51.8-7.03,1.91-10.54,3.4h-.65v-11.46c2.06-.57,5.04-1.26,8.9-1.95,3.89-.73,7.71-1.11,11.49-1.11,4.58,0,8.48.38,11.61,1.11,3.17.69,5.99,1.99,8.52,3.89,2.44,1.83,4.24,4.2,5.42,7.1Zm-9.39,21.38c-2.67.23-6.03.53-10.12.95-4.08.42-7.41,1.03-9.93,1.79-2.98.92-5.46,2.29-7.41,4.2-1.95,1.91-2.94,4.54-2.94,7.94,0,3.82,1.07,6.72,3.25,8.67,2.14,1.95,5.31,2.94,9.43,2.94,3.55,0,6.8-.76,9.66-2.33,2.86-1.53,5.57-3.4,8.06-5.65v-18.52Zm-273.55-24.48c5.42,6.19,8.13,14.85,8.13,26.08s-2.71,19.93-8.13,26.04c-5.42,6.15-12.64,9.2-21.65,9.2s-16.61-3.17-21.92-9.47c-5.35-6.34-8.02-14.93-8.02-25.77s2.75-19.86,8.25-26.04c5.5-6.19,12.72-9.28,21.69-9.28s16.23,3.09,21.65,9.24Zm-3.47,26.08c0-8.67-1.57-15.08-4.7-19.32-3.17-4.2-7.64-6.3-13.48-6.3s-10.39,2.1-13.56,6.3c-3.17,4.24-4.77,10.65-4.77,19.32s1.6,14.74,4.77,19.05c3.17,4.31,7.68,6.49,13.56,6.49s10.27-2.14,13.44-6.38,4.73-10.65,4.73-19.17Zm-471.39,19.09L59.95,16.95h-12.03l-17.83,74.08L12.14,16.95H0l22.8,89.08h13.06l17.72-73.96,18.14,73.96h13.33l22.38-89.08h-11.61l-17.83,74.8Zm526.22-54.41c-3.63,0-7.06.8-10.35,2.41s-6.57,3.89-9.93,6.87v-7.41h-11.26v66.82h11.26v-49.91c2.83-2.37,5.73-4.31,8.71-5.84,2.98-1.49,5.84-2.21,8.63-2.21s5.08.38,6.72,1.22c1.64.8,2.9,2.06,3.82,3.74.84,1.6,1.41,3.7,1.72,6.38.31,2.63.46,5.5.46,8.59v38.03h11.23v-43.38c0-8.21-1.83-14.47-5.57-18.82-3.7-4.31-8.86-6.49-15.43-6.49Zm-303.53,68.69h11.26V39.21h-11.26v66.82Zm-141.24-56.36c1.18,2.9,1.79,6.45,1.79,10.65v45.71h-11.19v-7.1c-.92.69-2.14,1.6-3.67,2.83-1.57,1.22-3.02,2.21-4.47,2.9-1.99,1.03-3.93,1.83-5.77,2.41-1.87.57-4.47.84-7.83.84-2.75,0-5.35-.53-7.83-1.57s-4.66-2.48-6.53-4.35c-1.79-1.83-3.25-4.12-4.31-6.8-1.07-2.71-1.6-5.54-1.6-8.52,0-4.66.99-8.59,2.94-11.84,1.95-3.25,5.04-5.84,9.28-7.75,3.74-1.72,8.17-2.9,13.29-3.55,5.08-.65,10.58-1.15,16.5-1.49v-2.14c0-2.63-.38-4.77-1.18-6.38s-1.91-2.86-3.36-3.74c-1.45-.92-3.21-1.53-5.27-1.83-2.06-.27-4.2-.42-6.41-.42-2.6,0-5.61.38-9.13,1.15-3.51.8-7.03,1.91-10.54,3.4h-.65v-11.46c2.06-.57,5.04-1.26,8.9-1.95,3.86-.73,7.71-1.11,11.49-1.11,4.58,0,8.44.38,11.61,1.11,3.13.69,5.99,1.99,8.48,3.89,2.44,1.83,4.28,4.2,5.46,7.1Zm-9.39,21.38c-2.67.23-6.03.53-10.16.95-4.09.42-7.37,1.03-9.89,1.79-2.98.92-5.46,2.29-7.41,4.2s-2.94,4.54-2.94,7.94c0,3.82,1.07,6.72,3.25,8.67,2.14,1.95,5.31,2.94,9.43,2.94,3.55,0,6.76-.76,9.62-2.33,2.9-1.53,5.57-3.4,8.1-5.65v-18.52Zm1412.48,109.21c-4.32,0-8.78,1.11-13.36,3.36-4.62,2.25-10,6.15-16.19,11.61v-14.97h-16.92v100.62h16.92v-71.44c4.01-3.89,8.29-6.84,12.79-8.82s9.05-2.98,13.59-2.98c1.99,0,3.7.04,5.12.15,1.37.08,2.75.31,4.01.69h.88v-17.68c-1.07-.19-2.06-.31-2.9-.38-.88-.11-2.21-.15-3.93-.15Zm305.86-139.37c-37.84-71.79-298.53-45.94-568.49,53.15-72.02,26.42-137.85,55.56-194.82,85.38l-28.14-113.9c-.3-.88-.73-1.57-1.3-2.18-.5-.57-1.3-1.03-2.33-1.34-.99-.31-2.33-.5-3.93-.61-1.64-.11-3.7-.19-6.19-.19-2.33,0-4.24.08-5.73.19-1.53.11-2.79.31-3.74.61-.99.31-1.72.76-2.22,1.3s-.92,1.26-1.22,2.1l-42.31,171.14c-23.56,15.77-44.22,31.39-61.52,46.55,17.87-13.06,37.88-26.31,59.8-39.56l-6.49,26.27c-.61,1.76-.95,3.09-.99,4.16,0,.99.27,1.83.84,2.37.57.53,1.57.92,3.02,1.11,1.45.19,3.28.31,5.54.31s3.93-.11,5.27-.27c1.37-.15,2.41-.38,3.17-.73.73-.38,1.3-.8,1.68-1.26.38-.53.69-1.15.92-1.83l1.57-4.58,8.67-38.3.19-.95c18.56-10.58,38.3-21.15,59.11-31.58l-1.91-8.4c-19.82,10.92-38.38,21.96-55.6,32.95l.34-1.49,28.41-125.74,2.52-13.67h.11l2.1,11.15,21.96,96.19.15.61c2.37-1.34,4.77-2.67,7.18-3.97.8,2.6,1.68,5.57,2.9,8.29,0,.08.04.15.08.23-2.75,1.37-5.46,2.75-8.17,4.16l15.35,67.32,2.9,8.25c.31.69.65,1.26.99,1.76.34.46.88.84,1.64,1.07.73.31,1.83.5,3.25.61,1.41.11,3.36.19,5.77.19s4.31-.11,5.77-.27c1.45-.15,2.44-.5,3.09-1.03.61-.53.88-1.34.88-2.37-.08-1.03-.38-2.44-.99-4.16l-20.01-80.91c47.27-22.87,99.55-45.1,155.6-65.64C1532.99,24.24,1793.67-1.65,1831.51,70.22c15.54,29.44-8.21,71.86-61.82,118.56,79-57.96,117.42-112.41,98.67-147.89Zm-926.28,161.86c1.95,5.54,2.9,12.33,2.9,20.39v9.16h-69.72c0,11.72,2.94,20.66,8.82,26.84,5.88,6.19,14.01,9.28,24.44,9.28,3.7,0,7.37-.42,10.92-1.26,3.59-.84,6.8-1.91,9.7-3.25,3.05-1.37,5.65-2.71,7.75-3.97,2.1-1.3,3.82-2.52,5.19-3.67h.99v18.48c-1.99.76-4.43,1.72-7.37,2.9-2.94,1.18-5.57,2.1-7.94,2.75-3.28.92-6.26,1.6-8.94,2.06-2.67.5-6.07.73-10.16.73-16.04,0-28.49-4.51-37.34-13.56-8.86-9.01-13.29-21.88-13.29-38.49s4.31-29.44,12.91-39.14c8.59-9.7,19.82-14.55,33.68-14.55,6.26,0,11.76.88,16.57,2.71,4.81,1.79,9.01,4.62,12.6,8.44,3.63,3.86,6.38,8.55,8.29,14.13Zm-13.59,16.61c-.11-4.58-.65-8.52-1.6-11.8-.95-3.32-2.37-6.11-4.16-8.4-1.99-2.52-4.51-4.43-7.6-5.77-3.09-1.3-6.91-1.95-11.49-1.95s-8.32.65-11.49,2.02c-3.13,1.34-5.99,3.32-8.59,5.88-2.52,2.63-4.43,5.57-5.77,8.78-1.3,3.21-2.14,6.95-2.52,11.23h53.23Zm655.97-55.94h19.28v-17.56h-19.28v17.56Zm-1280.06,32.61c1.79,4.39,2.71,9.74,2.71,16.04v68.81h-16.84v-10.73c-1.41,1.03-3.25,2.44-5.54,4.28-2.33,1.83-4.58,3.28-6.72,4.39-3.02,1.57-5.92,2.75-8.71,3.59s-6.72,1.26-11.76,1.26c-4.12,0-8.06-.76-11.8-2.33-3.7-1.57-6.99-3.78-9.81-6.57-2.71-2.79-4.85-6.19-6.49-10.23-1.6-4.05-2.41-8.32-2.41-12.83,0-6.99,1.45-12.91,4.39-17.79,2.94-4.89,7.6-8.78,13.98-11.68,5.65-2.56,12.3-4.35,20.01-5.35,7.68-.99,15.96-1.72,24.86-2.21v-3.25c0-3.97-.61-7.14-1.79-9.58-1.22-2.44-2.9-4.31-5.08-5.61-2.14-1.41-4.77-2.33-7.9-2.75-3.13-.46-6.34-.69-9.66-.69-3.89,0-8.48.57-13.75,1.76-5.31,1.18-10.58,2.86-15.88,5.08h-.99v-17.18c3.13-.92,7.6-1.91,13.44-2.98,5.8-1.11,11.57-1.64,17.3-1.64,6.91,0,12.72.53,17.45,1.64,4.77,1.07,9.01,3.02,12.79,5.84,3.67,2.75,6.41,6.34,8.21,10.73Zm-14.13,32.15c-4.05.34-9.13.84-15.27,1.49-6.15.61-11.11,1.53-14.93,2.63-4.47,1.41-8.21,3.51-11.15,6.38-2.94,2.83-4.43,6.84-4.43,11.91,0,5.77,1.64,10.12,4.89,13.06,3.25,2.98,7.98,4.43,14.2,4.43,5.35,0,10.2-1.15,14.51-3.47,4.31-2.29,8.4-5.15,12.18-8.52v-27.91Zm1193.34-36.81c8.17,9.28,12.26,22.38,12.26,39.25s-4.09,30.01-12.26,39.22c-8.17,9.2-19.02,13.82-32.61,13.82s-24.97-4.77-32.99-14.28c-8.02-9.51-12.03-22.45-12.03-38.76s4.12-29.9,12.37-39.18c8.25-9.32,19.13-13.98,32.65-13.98s24.44,4.62,32.61,13.9Zm-5.23,39.25c0-13.06-2.37-22.72-7.1-29.06-4.73-6.34-11.49-9.51-20.28-9.51s-15.62,3.17-20.39,9.51c-4.77,6.34-7.18,16-7.18,29.06s2.41,22.15,7.18,28.68c4.77,6.53,11.57,9.78,20.39,9.78s15.46-3.21,20.24-9.58c4.77-6.41,7.14-16.04,7.14-28.87Zm-279.59,24.74c-3.89,3.44-8.21,6.3-12.91,8.67-4.66,2.33-9.09,3.51-13.21,3.51-4.47,0-7.87-.61-10.23-1.79-2.37-1.22-4.24-3.09-5.61-5.69-1.41-2.63-2.29-5.73-2.67-9.24-.38-3.51-.57-7.94-.57-13.29v-57.28h-16.95v65.3c0,6.8.8,12.56,2.4,17.3,1.57,4.73,3.82,8.67,6.68,11.8,2.9,3.13,6.26,5.42,10.16,6.84,3.86,1.45,7.98,2.18,12.37,2.18,5.77,0,11-1.18,15.69-3.55,4.66-2.37,9.62-5.84,14.85-10.42v11.19h16.92v-100.62h-16.92v75.11Zm-984.74-52.62c1.91,5.54,2.9,12.33,2.9,20.39v9.16h-69.72c0,11.72,2.94,20.66,8.82,26.84,5.88,6.19,14.01,9.28,24.4,9.28,3.74,0,7.37-.42,10.96-1.26,3.55-.84,6.8-1.91,9.66-3.25,3.09-1.37,5.65-2.71,7.75-3.97,2.1-1.3,3.86-2.52,5.23-3.67h.99v18.48c-1.99.76-4.43,1.72-7.37,2.9-2.98,1.18-5.61,2.1-7.94,2.75-3.32.92-6.3,1.6-8.97,2.06-2.67.5-6.03.73-10.12.73-16.04,0-28.49-4.51-37.34-13.56-8.86-9.01-13.29-21.88-13.29-38.49s4.31-29.44,12.87-39.14c8.59-9.7,19.82-14.55,33.72-14.55,6.22,0,11.76.88,16.57,2.71,4.81,1.79,9.01,4.62,12.6,8.44,3.59,3.86,6.38,8.55,8.29,14.13Zm-13.59,16.61c-.11-4.58-.69-8.52-1.64-11.8-.95-3.32-2.33-6.11-4.12-8.4-1.99-2.52-4.51-4.43-7.6-5.77-3.09-1.3-6.95-1.95-11.49-1.95s-8.32.65-11.49,2.02c-3.17,1.34-6.03,3.32-8.59,5.88-2.52,2.63-4.47,5.57-5.77,8.78-1.34,3.21-2.18,6.95-2.52,11.23h53.23Zm-107.18-20.01H31.58v-52.62H13.75v134.14h17.83v-65.68h61.71v65.68h17.83v-134.14h-17.83v52.62Zm298.14-48h-16.95v28.91h-11.42v14.05h11.42v55.75c0,11.34,2.6,19.66,7.75,24.9,5.15,5.27,12.37,7.9,21.61,7.9,2.79,0,5.8-.27,9.05-.76,3.28-.53,6.53-1.22,9.7-2.14v-15.2h-.99c-1.15.53-3.02,1.22-5.57,2.02-2.6.8-5.27,1.22-8.02,1.22-3.89,0-6.99-.53-9.28-1.6-2.29-1.03-3.93-2.63-4.96-4.73-1.18-2.37-1.87-4.96-2.06-7.71-.19-2.79-.27-6.72-.27-11.8v-47.85h31.16v-14.05h-31.16v-28.91Zm381.5,44.68c1.83,4.39,2.71,9.74,2.71,16.04v68.81h-16.84v-10.73c-1.37,1.03-3.25,2.44-5.54,4.28-2.33,1.83-4.54,3.28-6.72,4.39-3.02,1.57-5.88,2.75-8.71,3.59-2.79.84-6.68,1.26-11.72,1.26-4.16,0-8.1-.76-11.8-2.33-3.74-1.57-7.03-3.78-9.81-6.57-2.71-2.79-4.89-6.19-6.49-10.23-1.64-4.05-2.44-8.32-2.44-12.83,0-6.99,1.49-12.91,4.43-17.79,2.94-4.89,7.56-8.78,13.94-11.68,5.65-2.56,12.33-4.35,20.01-5.35,7.68-.99,15.96-1.72,24.86-2.21v-3.25c0-3.97-.61-7.14-1.79-9.58-1.22-2.44-2.9-4.31-5.04-5.61-2.18-1.41-4.81-2.33-7.94-2.75-3.13-.46-6.34-.69-9.62-.69-3.93,0-8.52.57-13.78,1.76-5.31,1.18-10.58,2.86-15.85,5.08h-.99v-17.18c3.09-.92,7.6-1.91,13.4-2.98,5.84-1.11,11.61-1.64,17.3-1.64,6.91,0,12.72.53,17.49,1.64,4.73,1.07,9.01,3.02,12.79,5.84,3.67,2.75,6.38,6.34,8.17,10.73Zm-14.13,32.15c-4.01.34-9.13.84-15.27,1.49-6.15.61-11.11,1.53-14.89,2.63-4.51,1.41-8.25,3.51-11.19,6.38-2.94,2.83-4.39,6.84-4.39,11.91,0,5.77,1.6,10.12,4.85,13.06,3.25,2.98,7.98,4.43,14.24,4.43,5.35,0,10.16-1.15,14.47-3.47,4.35-2.29,8.4-5.15,12.18-8.52v-27.91Zm889.77-76.83h-16.95v28.91h-11.42v14.05h11.42v55.75c0,11.34,2.6,19.66,7.75,24.9,5.16,5.27,12.37,7.9,21.61,7.9,2.79,0,5.8-.27,9.05-.76,3.28-.53,6.53-1.22,9.7-2.14v-15.2h-.99c-1.15.53-3.02,1.22-5.57,2.02-2.6.8-5.27,1.22-8.02,1.22-3.89,0-7.03-.53-9.28-1.6-2.29-1.03-3.93-2.63-4.96-4.73-1.18-2.37-1.91-4.96-2.06-7.71-.19-2.79-.27-6.72-.27-11.8v-47.85h31.16v-14.05h-31.16v-28.91Zm-979.12-3.51c-3.36-1.03-7.03-1.87-10.96-2.52-3.93-.69-8.13-.99-12.64-.99-9.09,0-17.26,1.57-24.59,4.73-7.33,3.13-13.67,7.71-19.02,13.71-5.46,6.19-9.62,13.48-12.49,21.8-2.83,8.36-4.28,18.14-4.28,29.36s1.49,21.31,4.43,30.01c2.94,8.71,7.06,15.96,12.41,21.8,5.35,5.8,11.72,10.2,19.05,13.14,7.37,2.94,15.43,4.43,24.21,4.43,5.35,0,9.66-.34,13.02-.99,3.32-.69,6.95-1.64,10.84-2.9,3.7-1.18,6.87-2.41,9.51-3.67,2.6-1.3,5.38-2.6,8.32-3.97v-21.27h-1.34c-1.41,1.37-3.28,3.05-5.69,5-2.41,1.95-5.27,3.86-8.55,5.73-3.44,1.91-7.33,3.51-11.72,4.77-4.39,1.26-9.16,1.87-14.32,1.87-5.65,0-11-1.11-16.04-3.36-5.04-2.25-9.43-5.61-13.14-10.04-3.86-4.58-6.87-10.16-9.09-16.8-2.25-6.64-3.36-14.55-3.36-23.75,0-8.63,1.07-16.42,3.17-23.33,2.1-6.91,5.04-12.64,8.82-17.18,3.86-4.58,8.32-8.02,13.44-10.39,5.08-2.33,10.5-3.51,16.19-3.51,5.31,0,9.93.61,13.98,1.83,4.01,1.18,7.75,2.71,11.15,4.58,3.55,1.99,6.57,3.97,9.01,6.03,2.48,2.06,4.47,3.78,6.03,5.23h1.45v-21.54c-2.94-1.6-5.92-3.09-8.97-4.47-3.02-1.34-5.99-2.48-8.86-3.36Zm-338.2,133.03h16.95v-140.17h-16.95v140.17Zm514.65-100.62c-4.31,0-8.78,1.11-13.36,3.36-4.62,2.25-10,6.15-16.19,11.61v-14.97h-16.92v100.62h16.92v-71.44c4.05-3.89,8.29-6.84,12.79-8.82s9.05-2.98,13.59-2.98c1.99,0,3.7.04,5.12.15,1.41.08,2.75.31,4.01.69h.88v-17.68c-1.07-.19-2.06-.31-2.9-.38-.88-.11-2.18-.15-3.93-.15Zm509.04-2.79c-5.46,0-10.65,1.18-15.58,3.59-4.93,2.41-9.93,5.88-14.97,10.39v-50.75h-16.92v140.17h16.92v-75.11c4.28-3.63,8.63-6.53,13.1-8.78,4.47-2.25,8.82-3.4,13.02-3.4s7.64.61,10.08,1.83c2.48,1.26,4.39,3.13,5.77,5.65,1.26,2.41,2.14,5.61,2.6,9.58.42,4.01.65,8.32.65,12.94v57.28h16.95v-65.3c0-12.37-2.79-21.8-8.4-28.33-5.58-6.53-13.33-9.78-23.22-9.78Zm230.67,103.4h16.95v-100.62h-16.95v100.62ZM482.57,177.48c-5.46,0-10.65,1.18-15.58,3.59-4.93,2.41-9.93,5.88-14.97,10.39v-50.75h-16.92v140.17h16.92v-75.11c4.28-3.63,8.63-6.53,13.14-8.78,4.47-2.25,8.78-3.4,12.98-3.4s7.64.61,10.12,1.83c2.44,1.26,4.35,3.13,5.77,5.65,1.26,2.41,2.1,5.61,2.56,9.58.46,4.01.69,8.32.69,12.94v57.28h16.92v-65.3c0-12.37-2.79-21.8-8.36-28.33-5.61-6.53-13.33-9.78-23.25-9.78Zm1272.07,2.79l-27.38,74.5-27.49-74.5h-18.29l36.58,95.77-18.02,41.96h18.14l54.11-137.73h-17.64Zm-493.65-28.91h-16.92v28.91h-11.46v14.05h11.46v55.75c0,11.34,2.56,19.66,7.75,24.9,5.16,5.27,12.33,7.9,21.61,7.9,2.75,0,5.77-.27,9.05-.76,3.25-.53,6.49-1.22,9.66-2.14v-15.2h-.99c-1.15.53-2.98,1.22-5.57,2.02-2.6.8-5.23,1.22-8.02,1.22-3.89,0-6.99-.53-9.28-1.6-2.29-1.03-3.93-2.63-4.96-4.73-1.18-2.37-1.87-4.96-2.06-7.71-.15-2.79-.27-6.72-.27-11.8v-47.85h31.16v-14.05h-31.16v-28.91Z"/>
</svg>